<?xml version="1.0" encoding="UTF-8" standalone="no"?><svg xmlns="http://www.w3.org/2000/svg" xmlns:xlink="http://www.w3.org/1999/xlink" contentScriptType="application/ecmascript" contentStyleType="text/css" height="283.3333px" preserveAspectRatio="none" style="width:681px;height:283px;" version="1.1" viewBox="0 0 681 283" width="681.25px" zoomAndPan="magnify"><defs><filter height="300%" id="ftz50co" width="300%" x="-1" y="-1"><feGaussianBlur result="blurOut" stdDeviation="2.0833333333333335"/><feColorMatrix in="blurOut" result="blurOut2" type="matrix" values="0 0 0 0 0 0 0 0 0 0 0 0 0 0 0 0 0 0 .4 0"/><feOffset dx="4.166666666666667" dy="4.166666666666667" in="blurOut2" result="blurOut3"/><feBlend in="SourceGraphic" in2="blurOut3" mode="normal"/></filter></defs><g><rect fill="#FEFECE" filter="url(#ftz50co)" height="268.0541" rx="13.0208" ry="13.0208" style="stroke: #A80036; stroke-width: 1.5625;" width="667.7083" x="6.25" y="8.8542"/><rect fill="#FFFFFF" height="233.3333" rx="13.0208" ry="13.0208" style="stroke: #FFFFFF; stroke-width: 1.0416666666666667;" width="661.4583" x="9.375" y="40.4499"/><line style="stroke: #A80036; stroke-width: 1.5625;" x1="6.25" x2="673.9583" y1="37.3249" y2="37.3249"/><text fill="#000000" font-family="sans-serif" font-size="14.5833" lengthAdjust="spacingAndGlyphs" textLength="146.875" x="266.6667" y="27.9604">SoftwareInfrastructure</text><rect fill="#FEFECE" filter="url(#ftz50co)" height="69.8376" rx="13.0208" ry="13.0208" style="stroke: #A80036; stroke-width: 1.5625;" width="206.25" x="196.875" y="51.3874"/><line style="stroke: #A80036; stroke-width: 1.5625;" x1="196.875" x2="403.125" y1="79.8582" y2="79.8582"/><text fill="#000000" font-family="sans-serif" font-size="14.5833" lengthAdjust="spacingAndGlyphs" textLength="50" x="275" y="70.4936">vagrant</text><text fill="#000000" font-family="sans-serif" font-size="12.5" lengthAdjust="spacingAndGlyphs" textLength="141.6667" x="202.0833" y="96.9791">provision virtual machine</text><text fill="#000000" font-family="sans-serif" font-size="12.5" lengthAdjust="spacingAndGlyphs" textLength="185.4167" x="202.0833" y="112.4542">everyone has same environment</text><rect fill="#FEFECE" filter="url(#ftz50co)" height="54.3625" rx="13.0208" ry="13.0208" style="stroke: #A80036; stroke-width: 1.5625;" width="104.1667" x="17.7083" y="183.1583"/><line style="stroke: #A80036; stroke-width: 1.5625;" x1="17.7083" x2="121.875" y1="211.629" y2="211.629"/><text fill="#000000" font-family="sans-serif" font-size="14.5833" lengthAdjust="spacingAndGlyphs" textLength="40.625" x="49.4792" y="202.2644">github</text><text fill="#000000" font-family="sans-serif" font-size="12.5" lengthAdjust="spacingAndGlyphs" textLength="83.3333" x="22.9167" y="228.7499">version control</text><rect fill="#FEFECE" filter="url(#ftz50co)" height="100.7879" rx="13.0208" ry="13.0208" style="stroke: #A80036; stroke-width: 1.5625;" width="105.2083" x="141.4063" y="159.7208"/><line style="stroke: #A80036; stroke-width: 1.5625;" x1="141.4063" x2="246.6146" y1="188.1915" y2="188.1915"/><text fill="#000000" font-family="sans-serif" font-size="14.5833" lengthAdjust="spacingAndGlyphs" textLength="44.7917" x="171.6146" y="178.8269">jupyter</text><text fill="#000000" font-family="sans-serif" font-size="12.5" lengthAdjust="spacingAndGlyphs" textLength="70.8333" x="146.6146" y="205.3124">visualization</text><text fill="#000000" font-family="sans-serif" font-size="12.5" lengthAdjust="spacingAndGlyphs" textLength="63.5417" x="146.6146" y="220.7875">prototyping</text><text fill="#000000" font-family="sans-serif" font-size="12.5" lengthAdjust="spacingAndGlyphs" textLength="84.375" x="146.6146" y="236.2626">documentation</text><text fill="#000000" font-family="sans-serif" font-size="12.5" lengthAdjust="spacingAndGlyphs" textLength="70.8333" x="146.6146" y="251.7378">presentation</text><rect fill="#FEFECE" filter="url(#ftz50co)" height="54.3625" rx="13.0208" ry="13.0208" style="stroke: #A80036; stroke-width: 1.5625;" width="69.7917" x="265.3646" y="183.1583"/><line style="stroke: #A80036; stroke-width: 1.5625;" x1="265.3646" x2="335.1563" y1="211.629" y2="211.629"/><text fill="#000000" font-family="sans-serif" font-size="14.5833" lengthAdjust="spacingAndGlyphs" textLength="44.7917" x="277.8646" y="202.2644">python</text><text fill="#000000" font-family="sans-serif" font-size="12.5" lengthAdjust="spacingAndGlyphs" textLength="48.9583" x="270.5729" y="228.7499">backend</text><rect fill="#FEFECE" filter="url(#ftz50co)" height="54.3625" rx="13.0208" ry="13.0208" style="stroke: #A80036; stroke-width: 1.5625;" width="95.8333" x="354.1667" y="183.1583"/><line style="stroke: #A80036; stroke-width: 1.5625;" x1="354.1667" x2="450" y1="211.629" y2="211.629"/><text fill="#000000" font-family="sans-serif" font-size="14.5833" lengthAdjust="spacingAndGlyphs" textLength="10.4167" x="396.875" y="202.2644">R</text><text fill="#000000" font-family="sans-serif" font-size="12.5" lengthAdjust="spacingAndGlyphs" textLength="75" x="359.375" y="228.7499">data analysis</text><rect fill="#FEFECE" filter="url(#ftz50co)" height="54.3625" rx="13.0208" ry="13.0208" style="stroke: #A80036; stroke-width: 1.5625;" width="170.8333" x="468.75" y="183.1583"/><line style="stroke: #A80036; stroke-width: 1.5625;" x1="468.75" x2="639.5833" y1="211.629" y2="211.629"/><text fill="#000000" font-family="sans-serif" font-size="14.5833" lengthAdjust="spacingAndGlyphs" textLength="34.375" x="536.9792" y="202.2644">plotly</text><text fill="#000000" font-family="sans-serif" font-size="12.5" lengthAdjust="spacingAndGlyphs" textLength="150" x="473.9583" y="228.7499">dynamic data visualization</text><path d="M207.4865,121.2291 C182.0594,132.0051 154.9719,144.8895 131.25,159.1999 C121.5333,165.0615 111.6966,172.3378 102.8263,179.5084 " fill="none" style="stroke: #A80036; stroke-width: 1.0416666666666667;"/><polygon fill="#A80036" points="98.5542,183.0134,108.4449,180.2885,102.5808,179.7099,103.1594,173.8458,98.5542,183.0134" style="stroke: #A80036; stroke-width: 1.0416666666666667;"/><path d="M270.4031,121.2739 C261.1354,131.9051 250.6698,143.9093 240.5188,155.553 " fill="none" style="stroke: #A80036; stroke-width: 1.0416666666666667;"/><polygon fill="#A80036" points="237.0906,159.4859,246.3914,155.156,240.5126,155.5595,240.1091,149.6807,237.0906,159.4859" style="stroke: #A80036; stroke-width: 1.0416666666666667;"/><path d="M300,121.2739 C300,138.8905 300,160.2795 300,177.55 " fill="none" style="stroke: #A80036; stroke-width: 1.0416666666666667;"/><polygon fill="#A80036" points="300,182.769,304.1667,173.394,300,177.5607,295.8333,173.394,300,182.769" style="stroke: #A80036; stroke-width: 1.0416666666666667;"/><path d="M328.4354,121.2739 C343.4469,139.1947 361.726,161.0182 376.3188,178.4396 " fill="none" style="stroke: #A80036; stroke-width: 1.0416666666666667;"/><polygon fill="#A80036" points="379.9448,182.769,377.1189,172.9066,376.6004,178.7763,370.7307,178.2577,379.9448,182.769" style="stroke: #A80036; stroke-width: 1.0416666666666667;"/><path d="M377.8625,121.2843 C403.9354,132.9624 433.0583,146.3405 459.375,159.1999 C472.924,165.8203 487.3938,173.2603 500.8458,180.3374 " fill="none" style="stroke: #A80036; stroke-width: 1.0416666666666667;"/><polygon fill="#A80036" points="505.751,182.9261,499.4053,174.8648,501.145,180.4947,495.5152,182.2345,505.751,182.9261" style="stroke: #A80036; stroke-width: 1.0416666666666667;"/></g></svg>