<?xml version="1.0" encoding="UTF-8" standalone="yes"?><svg xmlns="http://www.w3.org/2000/svg" xmlns:xlink="http://www.w3.org/1999/xlink" height="271.875px" style="width:508px;height:271px;" version="1.1" viewBox="0 0 508 271" width="508.3333px"><defs><filter height="300%" id="f1" width="300%" x="-1" y="-1"><feGaussianBlur result="blurOut" stdDeviation="2.0833333333333335"/><feColorMatrix in="blurOut" result="blurOut2" type="matrix" values="0 0 0 0 0 0 0 0 0 0 0 0 0 0 0 0 0 0 .4 0"/><feOffset dx="4.166666666666667" dy="4.166666666666667" in="blurOut2" result="blurOut3"/><feBlend in="SourceGraphic" in2="blurOut3" mode="normal"/></filter></defs><g><rect fill="#FEFECE" filter="url(#f1)" height="256.5592" rx="13.0208" ry="13.0208" style="stroke: #A80036; stroke-width: 1.5625;" width="494.7917" x="6.25" y="8.3333"/><rect fill="#FFFFFF" height="222.9167" rx="13.0208" ry="13.0208" style="stroke: #FFFFFF; stroke-width: 1.0416666666666667;" width="488.5417" x="9.375" y="38.8509"/><line style="stroke: #A80036; stroke-width: 1.5625;" x1="6.25" x2="501.0417" y1="35.7259" y2="35.7259"/><text fill="#000000" font-family="sans-serif" font-size="14.5833" lengthAdjust="spacingAndGlyphs" textLength="158.3333" x="174.4792" y="27.0782">SoftwareInfrastructure</text><rect fill="#FEFECE" filter="url(#f1)" height="66.9108" rx="13.0208" ry="13.0208" style="stroke: #A80036; stroke-width: 1.5625;" width="233.3333" x="97.3958" y="49.2676"/><line style="stroke: #A80036; stroke-width: 1.5625;" x1="97.3958" x2="330.7292" y1="76.6602" y2="76.6602"/><text fill="#000000" font-family="sans-serif" font-size="14.5833" lengthAdjust="spacingAndGlyphs" textLength="53.125" x="187.5" y="68.0125">vagrant</text><text fill="#000000" font-family="sans-serif" font-size="12.5" lengthAdjust="spacingAndGlyphs" textLength="161.4583" x="102.6042" y="93.4713">provision virtual machine</text><text fill="#000000" font-family="sans-serif" font-size="12.5" lengthAdjust="spacingAndGlyphs" textLength="212.5" x="102.6042" y="108.0221">everyone has same environment</text><rect fill="#FEFECE" filter="url(#f1)" height="52.36" rx="13.0208" ry="13.0208" style="stroke: #A80036; stroke-width: 1.5625;" width="117.7083" x="17.7083" y="175.3092"/><line style="stroke: #A80036; stroke-width: 1.5625;" x1="17.7083" x2="135.4167" y1="202.7018" y2="202.7018"/><text fill="#000000" font-family="sans-serif" font-size="14.5833" lengthAdjust="spacingAndGlyphs" textLength="45.8333" x="53.6458" y="194.0542">github</text><text fill="#000000" font-family="sans-serif" font-size="12.5" lengthAdjust="spacingAndGlyphs" textLength="96.875" x="22.9167" y="219.5129">version control</text><rect fill="#FEFECE" filter="url(#f1)" height="96.0124" rx="13.0208" ry="13.0208" style="stroke: #A80036; stroke-width: 1.5625;" width="119.7917" x="154.1667" y="153.4342"/><line style="stroke: #A80036; stroke-width: 1.5625;" x1="154.1667" x2="273.9583" y1="180.8268" y2="180.8268"/><text fill="#000000" font-family="sans-serif" font-size="14.5833" lengthAdjust="spacingAndGlyphs" textLength="48.9583" x="189.5833" y="172.1792">jupyter</text><text fill="#000000" font-family="sans-serif" font-size="12.5" lengthAdjust="spacingAndGlyphs" textLength="78.125" x="159.375" y="197.6379">visualization</text><text fill="#000000" font-family="sans-serif" font-size="12.5" lengthAdjust="spacingAndGlyphs" textLength="75" x="159.375" y="212.1887">prototyping</text><text fill="#000000" font-family="sans-serif" font-size="12.5" lengthAdjust="spacingAndGlyphs" textLength="98.9583" x="159.375" y="226.7395">documentation</text><text fill="#000000" font-family="sans-serif" font-size="12.5" lengthAdjust="spacingAndGlyphs" textLength="84.375" x="159.375" y="241.2903">presentation</text><rect fill="#FEFECE" filter="url(#f1)" height="52.36" rx="13.0208" ry="13.0208" style="stroke: #A80036; stroke-width: 1.5625;" width="172.9167" x="293.2292" y="175.3092"/><line style="stroke: #A80036; stroke-width: 1.5625;" x1="293.2292" x2="466.1458" y1="202.7018" y2="202.7018"/><text fill="#000000" font-family="sans-serif" font-size="14.5833" lengthAdjust="spacingAndGlyphs" textLength="50" x="354.6875" y="194.0542">python</text><text fill="#000000" font-family="sans-serif" font-size="12.5" lengthAdjust="spacingAndGlyphs" textLength="152.0833" x="298.4375" y="219.5129">programming language</text><path d="M175.7615,116.1405 C155.3708,133.4415 130.5042,154.5409 110.7678,171.2865 " fill="none" style="stroke: #A80036; stroke-width: 1.0416666666666667;"/><polygon fill="#A80036" points="106.3821,175.0078,116.2263,172.1194,110.3534,171.6381,110.8347,165.7652,106.3821,175.0078" style="stroke: #A80036; stroke-width: 1.0416666666666667;"/><path d="M214.0625,116.1405 C214.0625,125.9905 214.0625,137.0728 214.0625,147.8811 " fill="none" style="stroke: #A80036; stroke-width: 1.0416666666666667;"/><polygon fill="#A80036" points="214.0625,153.1586,218.2292,143.7836,214.0625,147.9503,209.8958,143.7836,214.0625,153.1586" style="stroke: #A80036; stroke-width: 1.0416666666666667;"/><path d="M260.1979,116.1405 C285.1583,133.7228 315.6896,155.2286 339.6417,172.1006 " fill="none" style="stroke: #A80036; stroke-width: 1.0416666666666667;"/><polygon fill="#A80036" points="344.0344,175.1951,338.7683,166.3906,339.776,172.1963,333.9702,173.204,344.0344,175.1951" style="stroke: #A80036; stroke-width: 1.0416666666666667;"/></g></svg>