<?xml version="1.0" encoding="UTF-8" standalone="no"?><svg xmlns="http://www.w3.org/2000/svg" xmlns:xlink="http://www.w3.org/1999/xlink" contentScriptType="application/ecmascript" contentStyleType="text/css" height="283.3333px" preserveAspectRatio="none" style="width:461px;height:283px;" version="1.1" viewBox="0 0 461 283" width="461.4583px" zoomAndPan="magnify"><defs><filter height="300%" id="fb7w2d9" width="300%" x="-1" y="-1"><feGaussianBlur result="blurOut" stdDeviation="2.0833333333333335"/><feColorMatrix in="blurOut" result="blurOut2" type="matrix" values="0 0 0 0 0 0 0 0 0 0 0 0 0 0 0 0 0 0 .4 0"/><feOffset dx="4.166666666666667" dy="4.166666666666667" in="blurOut2" result="blurOut3"/><feBlend in="SourceGraphic" in2="blurOut3" mode="normal"/></filter></defs><g><rect fill="#FEFECE" filter="url(#fb7w2d9)" height="268.0541" rx="13.0208" ry="13.0208" style="stroke: #A80036; stroke-width: 1.5625;" width="447.9167" x="6.25" y="8.8542"/><rect fill="#FFFFFF" height="233.3333" rx="13.0208" ry="13.0208" style="stroke: #FFFFFF; stroke-width: 1.0416666666666667;" width="441.6667" x="9.375" y="40.4499"/><line style="stroke: #A80036; stroke-width: 1.5625;" x1="6.25" x2="454.1667" y1="37.3249" y2="37.3249"/><text fill="#000000" font-family="sans-serif" font-size="14.5833" lengthAdjust="spacingAndGlyphs" textLength="146.875" x="156.7708" y="27.9604">SoftwareInfrastructure</text><rect fill="#FEFECE" filter="url(#fb7w2d9)" height="69.8376" rx="13.0208" ry="13.0208" style="stroke: #A80036; stroke-width: 1.5625;" width="206.25" x="90.625" y="51.3874"/><line style="stroke: #A80036; stroke-width: 1.5625;" x1="90.625" x2="296.875" y1="79.8582" y2="79.8582"/><text fill="#000000" font-family="sans-serif" font-size="14.5833" lengthAdjust="spacingAndGlyphs" textLength="50" x="168.75" y="70.4936">vagrant</text><text fill="#000000" font-family="sans-serif" font-size="12.5" lengthAdjust="spacingAndGlyphs" textLength="141.6667" x="95.8333" y="96.9791">provision virtual machine</text><text fill="#000000" font-family="sans-serif" font-size="12.5" lengthAdjust="spacingAndGlyphs" textLength="185.4167" x="95.8333" y="112.4542">everyone has same environment</text><rect fill="#FEFECE" filter="url(#fb7w2d9)" height="54.3625" rx="13.0208" ry="13.0208" style="stroke: #A80036; stroke-width: 1.5625;" width="104.1667" x="17.7083" y="183.1583"/><line style="stroke: #A80036; stroke-width: 1.5625;" x1="17.7083" x2="121.875" y1="211.629" y2="211.629"/><text fill="#000000" font-family="sans-serif" font-size="14.5833" lengthAdjust="spacingAndGlyphs" textLength="40.625" x="49.4792" y="202.2644">github</text><text fill="#000000" font-family="sans-serif" font-size="12.5" lengthAdjust="spacingAndGlyphs" textLength="83.3333" x="22.9167" y="228.7499">version control</text><rect fill="#FEFECE" filter="url(#fb7w2d9)" height="100.7879" rx="13.0208" ry="13.0208" style="stroke: #A80036; stroke-width: 1.5625;" width="105.2083" x="141.4063" y="159.7208"/><line style="stroke: #A80036; stroke-width: 1.5625;" x1="141.4063" x2="246.6146" y1="188.1915" y2="188.1915"/><text fill="#000000" font-family="sans-serif" font-size="14.5833" lengthAdjust="spacingAndGlyphs" textLength="44.7917" x="171.6146" y="178.8269">jupyter</text><text fill="#000000" font-family="sans-serif" font-size="12.5" lengthAdjust="spacingAndGlyphs" textLength="70.8333" x="146.6146" y="205.3124">visualization</text><text fill="#000000" font-family="sans-serif" font-size="12.5" lengthAdjust="spacingAndGlyphs" textLength="63.5417" x="146.6146" y="220.7875">prototyping</text><text fill="#000000" font-family="sans-serif" font-size="12.5" lengthAdjust="spacingAndGlyphs" textLength="84.375" x="146.6146" y="236.2626">documentation</text><text fill="#000000" font-family="sans-serif" font-size="12.5" lengthAdjust="spacingAndGlyphs" textLength="70.8333" x="146.6146" y="251.7378">presentation</text><rect fill="#FEFECE" filter="url(#fb7w2d9)" height="54.3625" rx="13.0208" ry="13.0208" style="stroke: #A80036; stroke-width: 1.5625;" width="154.1667" x="265.625" y="183.1583"/><line style="stroke: #A80036; stroke-width: 1.5625;" x1="265.625" x2="419.7917" y1="211.629" y2="211.629"/><text fill="#000000" font-family="sans-serif" font-size="14.5833" lengthAdjust="spacingAndGlyphs" textLength="44.7917" x="320.3125" y="202.2644">python</text><text fill="#000000" font-family="sans-serif" font-size="12.5" lengthAdjust="spacingAndGlyphs" textLength="133.3333" x="270.8333" y="228.7499">programming language</text><path d="M159.2208,121.2739 C140.8385,139.3468 118.4206,161.3883 100.6282,178.8816 " fill="none" style="stroke: #A80036; stroke-width: 1.0416666666666667;"/><polygon fill="#A80036" points="96.6745,182.769,106.2808,179.1675,100.3884,179.1175,100.4384,173.2252,96.6745,182.769" style="stroke: #A80036; stroke-width: 1.0416666666666667;"/><path d="M193.75,121.2739 C193.75,131.4426 193.75,142.8676 193.75,154.0322 " fill="none" style="stroke: #A80036; stroke-width: 1.0416666666666667;"/><polygon fill="#A80036" points="193.75,159.4859,197.9167,150.1109,193.75,154.2775,189.5833,150.1109,193.75,159.4859" style="stroke: #A80036; stroke-width: 1.0416666666666667;"/><path d="M235.2427,121.2739 C257.5177,139.4989 284.725,161.759 306.1906,179.3217 " fill="none" style="stroke: #A80036; stroke-width: 1.0416666666666667;"/><polygon fill="#A80036" points="310.4042,182.769,305.7861,173.6079,306.3729,179.4712,300.5096,180.058,310.4042,182.769" style="stroke: #A80036; stroke-width: 1.0416666666666667;"/></g></svg>