<?xml version="1.0" encoding="UTF-8" standalone="yes"?><svg xmlns="http://www.w3.org/2000/svg" xmlns:xlink="http://www.w3.org/1999/xlink" height="1296.875px" style="width:1478px;height:1296px;" version="1.1" viewBox="0 0 1478 1296" width="1478.125px"><defs><filter height="300%" id="f1" width="300%" x="-1" y="-1"><feGaussianBlur result="blurOut" stdDeviation="2.0833333333333335"/><feColorMatrix in="blurOut" result="blurOut2" type="matrix" values="0 0 0 0 0 0 0 0 0 0 0 0 0 0 0 0 0 0 .4 0"/><feOffset dx="4.166666666666667" dy="4.166666666666667" in="blurOut2" result="blurOut3"/><feBlend in="SourceGraphic" in2="blurOut3" mode="normal"/></filter></defs><g><rect fill="#FEFECE" filter="url(#f1)" height="1134.375" rx="13.0208" ry="13.0208" style="stroke: #A80036; stroke-width: 1.5625;" width="860.4167" x="22.9167" y="155.2083"/><rect fill="#FFFFFF" height="1100.7324" rx="13.0208" ry="13.0208" style="stroke: #FFFFFF; stroke-width: 1.0416666666666667;" width="854.1667" x="26.0417" y="185.7259"/><line style="stroke: #A80036; stroke-width: 1.5625;" x1="22.9167" x2="883.3333" y1="182.6009" y2="182.6009"/><text fill="#000000" font-family="sans-serif" font-size="14.5833" lengthAdjust="spacingAndGlyphs" textLength="112.5" x="396.875" y="172.9116">Energiecampus</text><rect fill="#FEFECE" filter="url(#f1)" height="297.9167" rx="13.0208" ry="13.0208" style="stroke: #A80036; stroke-width: 1.5625;" width="338.5417" x="58.3333" y="821.875"/><rect fill="#FFFFFF" height="200.8626" rx="13.0208" ry="13.0208" style="stroke: #FFFFFF; stroke-width: 1.0416666666666667;" width="332.2917" x="61.4583" y="915.804"/><line style="stroke: #A80036; stroke-width: 1.5625;" x1="58.3333" x2="396.875" y1="912.679" y2="912.679"/><line style="stroke: #A80036; stroke-width: 1.5625;" x1="58.3333" x2="396.875" y1="849.2676" y2="849.2676"/><text fill="#000000" font-family="sans-serif" font-size="14.5833" lengthAdjust="spacingAndGlyphs" textLength="168.75" x="66.6667" y="839.5782">Wärmeübergabestation</text><text fill="#000000" font-family="sans-serif" font-size="12.5" lengthAdjust="spacingAndGlyphs" textLength="321.875" x="63.5417" y="863.4745">Fernwärmenetz zu Zentralheizung des Gebäudes.</text><text fill="#000000" font-family="sans-serif" font-size="12.5" lengthAdjust="spacingAndGlyphs" textLength="186.4583" x="63.5417" y="878.0253">Leistung (thermisch) : 15 kW</text><text fill="#000000" font-family="sans-serif" font-size="12.5" lengthAdjust="spacingAndGlyphs" textLength="316.6667" x="63.5417" y="892.5761">Leistung (elektrisch) (power to heat) : 1.2-18 kW</text><text fill="#000000" font-family="sans-serif" font-size="12.5" lengthAdjust="spacingAndGlyphs" textLength="258.3333" x="63.5417" y="907.1269">Rückkühler Leistung (thermisch): 45 kW</text><rect fill="#FEFECE" filter="url(#f1)" height="119.7917" rx="13.0208" ry="13.0208" style="stroke: #A80036; stroke-width: 1.5625;" width="629.1667" x="172.9167" y="1144.7917"/><rect fill="#FFFFFF" height="86.1491" rx="13.0208" ry="13.0208" style="stroke: #FFFFFF; stroke-width: 1.0416666666666667;" width="622.9167" x="176.0417" y="1175.3092"/><line style="stroke: #A80036; stroke-width: 1.5625;" x1="172.9167" x2="802.0833" y1="1172.1842" y2="1172.1842"/><text fill="#000000" font-family="sans-serif" font-size="14.5833" lengthAdjust="spacingAndGlyphs" textLength="88.5417" x="443.2292" y="1162.4949">Verbraucher</text><rect fill="#FEFECE" filter="url(#f1)" height="317.7083" rx="13.0208" ry="13.0208" style="stroke: #A80036; stroke-width: 1.5625;" width="422.9167" x="421.875" y="687.5"/><rect fill="#FFFFFF" height="284.0658" rx="13.0208" ry="13.0208" style="stroke: #FFFFFF; stroke-width: 1.0416666666666667;" width="416.6667" x="425" y="718.0176"/><line style="stroke: #A80036; stroke-width: 1.5625;" x1="421.875" x2="844.7917" y1="714.8926" y2="714.8926"/><text fill="#000000" font-family="sans-serif" font-size="14.5833" lengthAdjust="spacingAndGlyphs" textLength="191.6667" x="537.5" y="705.2032">BlockheizkraftwerkGesamt</text><rect fill="#FEFECE" filter="url(#f1)" height="105.2083" rx="13.0208" ry="13.0208" style="stroke: #A80036; stroke-width: 1.5625;" width="277.0833" x="367.7083" y="25"/><rect fill="#FFFFFF" height="71.5658" rx="13.0208" ry="13.0208" style="stroke: #FFFFFF; stroke-width: 1.0416666666666667;" width="270.8333" x="370.8333" y="55.5176"/><line style="stroke: #A80036; stroke-width: 1.5625;" x1="367.7083" x2="644.7917" y1="52.3926" y2="52.3926"/><text fill="#000000" font-family="sans-serif" font-size="14.5833" lengthAdjust="spacingAndGlyphs" textLength="38.5417" x="486.9792" y="42.7032">Natur</text><rect fill="#FEFECE" filter="url(#f1)" height="105.2083" rx="13.0208" ry="13.0208" style="stroke: #A80036; stroke-width: 1.5625;" width="562.5" x="908.3333" y="557.2917"/><rect fill="#FFFFFF" height="71.5658" rx="13.0208" ry="13.0208" style="stroke: #FFFFFF; stroke-width: 1.0416666666666667;" width="556.25" x="911.4583" y="587.8092"/><line style="stroke: #A80036; stroke-width: 1.5625;" x1="908.3333" x2="1470.8333" y1="584.6842" y2="584.6842"/><text fill="#000000" font-family="sans-serif" font-size="14.5833" lengthAdjust="spacingAndGlyphs" textLength="70.8333" x="1154.1667" y="574.9949">Versorger</text><rect fill="#FEFECE" filter="url(#f1)" height="52.36" rx="13.0208" ry="13.0208" style="stroke: #A80036; stroke-width: 1.5625;" width="266.6667" x="372.9167" y="191.6667"/><line style="stroke: #A80036; stroke-width: 1.5625;" x1="372.9167" x2="639.5833" y1="219.0592" y2="219.0592"/><text fill="#000000" font-family="sans-serif" font-size="14.5833" lengthAdjust="spacingAndGlyphs" textLength="87.5" x="462.5" y="210.4116">Photovoltaik</text><text fill="#000000" font-family="sans-serif" font-size="12.5" lengthAdjust="spacingAndGlyphs" textLength="245.8333" x="378.125" y="235.8704">Leistung (elektrisch) : ca. 10 kW peak</text><rect fill="#FEFECE" filter="url(#f1)" height="96.0124" rx="13.0208" ry="13.0208" style="stroke: #A80036; stroke-width: 1.5625;" width="385.4167" x="83.3333" y="306.25"/><line style="stroke: #A80036; stroke-width: 1.5625;" x1="83.3333" x2="468.75" y1="333.6426" y2="333.6426"/><text fill="#000000" font-family="sans-serif" font-size="14.5833" lengthAdjust="spacingAndGlyphs" textLength="118.75" x="216.6667" y="324.9949">Batteriespeicher</text><text fill="#000000" font-family="sans-serif" font-size="12.5" lengthAdjust="spacingAndGlyphs" textLength="364.5833" x="88.5417" y="350.4537">Lithium-Ionen Akkumulatoren und Superkondensatoren.</text><text fill="#000000" font-family="sans-serif" font-size="12.5" lengthAdjust="spacingAndGlyphs" textLength="181.25" x="88.5417" y="365.0045">Leistung (elektrisch): 50 kW</text><text fill="#000000" font-family="sans-serif" font-size="12.5" lengthAdjust="spacingAndGlyphs" textLength="261.4583" x="88.5417" y="379.5553">Kapazität (elektrisch): 30 kWh + 300 Wh</text><text fill="#000000" font-family="sans-serif" font-size="12.5" lengthAdjust="spacingAndGlyphs" textLength="126.0417" x="88.5417" y="394.106">Latenzzeit: &lt; 10 ms</text><rect fill="#FEFECE" filter="url(#f1)" height="66.9108" rx="13.0208" ry="13.0208" style="stroke: #A80036; stroke-width: 1.5625;" width="243.75" x="381.25" y="464.5833"/><line style="stroke: #A80036; stroke-width: 1.5625;" x1="381.25" x2="625" y1="491.9759" y2="491.9759"/><text fill="#000000" font-family="sans-serif" font-size="14.5833" lengthAdjust="spacingAndGlyphs" textLength="78.125" x="464.0625" y="483.3282">Elektrolyse</text><text fill="#000000" font-family="sans-serif" font-size="12.5" lengthAdjust="spacingAndGlyphs" textLength="185.4167" x="386.4583" y="508.787">Leistung (elektrisch) : 10 kW</text><text fill="#000000" font-family="sans-serif" font-size="12.5" lengthAdjust="spacingAndGlyphs" textLength="222.9167" x="386.4583" y="523.3378">Wasserstoffproduktion : 2.92 m³/h</text><rect fill="#FEFECE" filter="url(#f1)" height="52.36" rx="13.0208" ry="13.0208" style="stroke: #A80036; stroke-width: 1.5625;" width="203.125" x="534.8958" y="593.75"/><line style="stroke: #A80036; stroke-width: 1.5625;" x1="534.8958" x2="738.0208" y1="621.1426" y2="621.1426"/><text fill="#000000" font-family="sans-serif" font-size="14.5833" lengthAdjust="spacingAndGlyphs" textLength="111.4583" x="580.7292" y="612.4949">Methanisierung</text><text fill="#000000" font-family="sans-serif" font-size="12.5" lengthAdjust="spacingAndGlyphs" textLength="182.2917" x="540.1042" y="637.9537">Methanproduktion: 0.2 m³/h</text><rect fill="#FEFECE" filter="url(#f1)" height="66.9108" rx="13.0208" ry="13.0208" style="stroke: #A80036; stroke-width: 1.5625;" width="207.2917" x="172.3958" y="921.875"/><line style="stroke: #A80036; stroke-width: 1.5625;" x1="172.3958" x2="379.6875" y1="949.2676" y2="949.2676"/><text fill="#000000" font-family="sans-serif" font-size="14.5833" lengthAdjust="spacingAndGlyphs" textLength="120.8333" x="215.625" y="940.6199">Elektroheizstäbe</text><text fill="#000000" font-family="sans-serif" font-size="12.5" lengthAdjust="spacingAndGlyphs" textLength="185.4167" x="177.6042" y="966.0787">Leistung (elektrisch) : 24 kW</text><text fill="#000000" font-family="sans-serif" font-size="12.5" lengthAdjust="spacingAndGlyphs" textLength="186.4583" x="177.6042" y="980.6295">Leistung (thermisch) : 11 kW</text><rect fill="#FEFECE" filter="url(#f1)" height="52.36" rx="13.0208" ry="13.0208" style="stroke: #A80036; stroke-width: 1.5625;" width="170.8333" x="209.375" y="1051.0417"/><line style="stroke: #A80036; stroke-width: 1.5625;" x1="209.375" x2="380.2083" y1="1078.4342" y2="1078.4342"/><text fill="#000000" font-family="sans-serif" font-size="14.5833" lengthAdjust="spacingAndGlyphs" textLength="150" x="219.7917" y="1069.7866">thermischerSpeicher</text><text fill="#000000" font-family="sans-serif" font-size="12.5" lengthAdjust="spacingAndGlyphs" textLength="92.7083" x="214.5833" y="1095.2454">1000 l Wasser</text><rect fill="#FEFECE" filter="url(#f1)" height="66.9108" rx="13.0208" ry="13.0208" style="stroke: #A80036; stroke-width: 1.5625;" width="217.7083" x="567.1875" y="1181.25"/><line style="stroke: #A80036; stroke-width: 1.5625;" x1="567.1875" x2="784.8958" y1="1208.6426" y2="1208.6426"/><text fill="#000000" font-family="sans-serif" font-size="14.5833" lengthAdjust="spacingAndGlyphs" textLength="82.2917" x="634.8958" y="1199.9949">Elektroauto</text><text fill="#000000" font-family="sans-serif" font-size="12.5" lengthAdjust="spacingAndGlyphs" textLength="196.875" x="572.3958" y="1225.4537">Lade- Entlade-Leistung : ?? kW</text><text fill="#000000" font-family="sans-serif" font-size="12.5" lengthAdjust="spacingAndGlyphs" textLength="119.7917" x="572.3958" y="1240.0045">Kapazität : 22 kWh</text><rect fill="#FEFECE" filter="url(#f1)" height="52.36" rx="13.0208" ry="13.0208" style="stroke: #A80036; stroke-width: 1.5625;" width="120.8333" x="409.375" y="1188.5417"/><line style="stroke: #A80036; stroke-width: 1.5625;" x1="409.375" x2="530.2083" y1="1215.9342" y2="1215.9342"/><text fill="#000000" font-family="sans-serif" font-size="14.5833" lengthAdjust="spacingAndGlyphs" textLength="100" x="419.7917" y="1207.2866">Raumheizung</text><text fill="#000000" font-family="sans-serif" font-size="12.5" lengthAdjust="spacingAndGlyphs" textLength="35.4167" x="414.5833" y="1232.7454">?? kW</text><rect fill="#FEFECE" filter="url(#f1)" height="52.36" rx="13.0208" ry="13.0208" style="stroke: #A80036; stroke-width: 1.5625;" width="182.2917" x="190.1042" y="1188.5417"/><line style="stroke: #A80036; stroke-width: 1.5625;" x1="190.1042" x2="372.3958" y1="1215.9342" y2="1215.9342"/><text fill="#000000" font-family="sans-serif" font-size="14.5833" lengthAdjust="spacingAndGlyphs" textLength="161.4583" x="200.5208" y="1207.2866">Warmwasserbereitung</text><text fill="#000000" font-family="sans-serif" font-size="12.5" lengthAdjust="spacingAndGlyphs" textLength="35.4167" x="195.3125" y="1232.7454">?? kW</text><rect fill="#FEFECE" filter="url(#f1)" height="81.4616" rx="13.0208" ry="13.0208" style="stroke: #A80036; stroke-width: 1.5625;" width="284.375" x="493.2292" y="723.9583"/><line style="stroke: #A80036; stroke-width: 1.5625;" x1="493.2292" x2="777.6042" y1="751.3509" y2="751.3509"/><text fill="#000000" font-family="sans-serif" font-size="14.5833" lengthAdjust="spacingAndGlyphs" textLength="85.4167" x="592.7083" y="742.7032">Gasmischer</text><text fill="#000000" font-family="sans-serif" font-size="12.5" lengthAdjust="spacingAndGlyphs" textLength="180.2083" x="498.4375" y="768.162">Wasserstoff aus Elektrolyse</text><text fill="#000000" font-family="sans-serif" font-size="12.5" lengthAdjust="spacingAndGlyphs" textLength="263.5417" x="498.4375" y="782.7128">Methanhaltiges Gas aus Methanisierung</text><text fill="#000000" font-family="sans-serif" font-size="12.5" lengthAdjust="spacingAndGlyphs" textLength="191.6667" x="498.4375" y="797.2636">Erdgas dem öffentlichen Netz</text><rect fill="#FEFECE" filter="url(#f1)" height="66.9108" rx="13.0208" ry="13.0208" style="stroke: #A80036; stroke-width: 1.5625;" width="389.5833" x="438.5417" y="921.875"/><line style="stroke: #A80036; stroke-width: 1.5625;" x1="438.5417" x2="828.125" y1="949.2676" y2="949.2676"/><text fill="#000000" font-family="sans-serif" font-size="14.5833" lengthAdjust="spacingAndGlyphs" textLength="135.4167" x="565.625" y="940.6199">Blockheizkraftwerk</text><text fill="#000000" font-family="sans-serif" font-size="12.5" lengthAdjust="spacingAndGlyphs" textLength="368.75" x="443.75" y="966.0787">Erdgas, Methanhaltiges Gas, Wasserstoff (maximal 20%)</text><text fill="#000000" font-family="sans-serif" font-size="12.5" lengthAdjust="spacingAndGlyphs" textLength="197.9167" x="443.75" y="980.6295">Leistung (elektrisch) : 5-16 kW</text><rect fill="#FEFECE" filter="url(#f1)" height="52.36" rx="13.0208" ry="13.0208" style="stroke: #A80036; stroke-width: 1.5625;" width="243.75" x="384.375" y="61.4583"/><line style="stroke: #A80036; stroke-width: 1.5625;" x1="384.375" x2="628.125" y1="88.8509" y2="88.8509"/><text fill="#000000" font-family="sans-serif" font-size="14.5833" lengthAdjust="spacingAndGlyphs" textLength="46.875" x="482.8125" y="80.2032">Sonne</text><text fill="#000000" font-family="sans-serif" font-size="12.5" lengthAdjust="spacingAndGlyphs" textLength="222.9167" x="389.5833" y="105.662">Leistung (solar) : ca. 1kW/m² peak</text><rect fill="#FEFECE" filter="url(#f1)" height="52.36" rx="13.0208" ry="13.0208" style="stroke: #A80036; stroke-width: 1.5625;" width="152.0833" x="1302.0833" y="593.75"/><line style="stroke: #A80036; stroke-width: 1.5625;" x1="1302.0833" x2="1454.1667" y1="621.1426" y2="621.1426"/><text fill="#000000" font-family="sans-serif" font-size="14.5833" lengthAdjust="spacingAndGlyphs" textLength="42.7083" x="1356.7708" y="612.4949">Strom</text><text fill="#000000" font-family="sans-serif" font-size="12.5" lengthAdjust="spacingAndGlyphs" textLength="131.25" x="1307.2917" y="637.9537">elektrische Leistung</text><rect fill="#FEFECE" filter="url(#f1)" height="52.36" rx="13.0208" ry="13.0208" style="stroke: #A80036; stroke-width: 1.5625;" width="150" x="925" y="593.75"/><line style="stroke: #A80036; stroke-width: 1.5625;" x1="925" x2="1075" y1="621.1426" y2="621.1426"/><text fill="#000000" font-family="sans-serif" font-size="14.5833" lengthAdjust="spacingAndGlyphs" textLength="50" x="975" y="612.4949">Erdgas</text><text fill="#000000" font-family="sans-serif" font-size="12.5" lengthAdjust="spacingAndGlyphs" textLength="129.1667" x="930.2083" y="637.9537">chemische Leistung</text><rect fill="#FEFECE" filter="url(#f1)" height="52.36" rx="13.0208" ry="13.0208" style="stroke: #A80036; stroke-width: 1.5625;" width="153.125" x="1111.9792" y="593.75"/><line style="stroke: #A80036; stroke-width: 1.5625;" x1="1111.9792" x2="1265.1042" y1="621.1426" y2="621.1426"/><text fill="#000000" font-family="sans-serif" font-size="14.5833" lengthAdjust="spacingAndGlyphs" textLength="80.2083" x="1148.4375" y="612.4949">Fernwärme</text><text fill="#000000" font-family="sans-serif" font-size="12.5" lengthAdjust="spacingAndGlyphs" textLength="132.2917" x="1117.1875" y="637.9537">thermische Leistung</text><path d="M506.25,113.5521 C506.25,134.2292 506.25,163.6875 506.25,185.8229 " fill="none" style="stroke: #FFFF00; stroke-width: 1.0416666666666667;"/><polygon fill="#FFFF00" points="506.25,191.2813,510.4167,181.9063,506.25,186.0729,502.0833,181.9063,506.25,191.2813" style="stroke: #FFFF00; stroke-width: 1.0416666666666667;"/><path d="M1359.7396,645.974 C1299.7292,726.451 1100.9479,981.0385 883.3333,1128.125 C852.6729,1148.8479 816.1958,1165.9594 782.45,1179.2844 " fill="none" style="stroke: #0000FF; stroke-width: 1.0416666666666667;"/><polygon fill="#0000FF" points="777.4927,1181.2229,787.7414,1181.6886,782.3433,1179.3258,784.706,1173.9277,777.4927,1181.2229" style="stroke: #0000FF; stroke-width: 1.0416666666666667;"/><path d="M942.9604,645.9135 C924.0615,654.0542 902.8656,663.001 883.3333,670.8333 C839.9917,688.2135 791.9958,706.4031 749.8688,722.0219 " fill="none" style="stroke: #FF0000; stroke-width: 1.0416666666666667;"/><polygon fill="#FF0000" points="744.7604,723.9135,754.999,724.5635,749.6443,722.104,752.1038,716.7493,744.7604,723.9135" style="stroke: #FF0000; stroke-width: 1.0416666666666667;"/><path d="M1175.2813,646.2792 C1136.0938,718.5458 1012.949,925.4698 844.7917,1013.5417 C767.174,1054.1938 521.0802,1068.6438 385.899,1073.5927 " fill="none" style="stroke: #008000; stroke-width: 1.0416666666666667;"/><polygon fill="#008000" points="380.3427,1073.7938,389.8628,1077.6174,385.5476,1073.6047,389.5603,1069.2896,380.3427,1073.7938" style="stroke: #008000; stroke-width: 1.0416666666666667;"/><path d="M541.7188,988.6677 C488.1417,1007.625 421.3125,1031.2729 370.6938,1049.1844 " fill="none" style="stroke: #008000; stroke-width: 1.0416666666666667;"/><polygon fill="#008000" points="365.5375,1051.0083,375.7654,1051.81,370.4477,1049.2714,372.9863,1043.9537,365.5375,1051.0083" style="stroke: #008000; stroke-width: 1.0416666666666667;"/><path d="M638.7427,988.8365 C646.6688,1036.5875 661.4042,1125.3625 669.7865,1175.8573 " fill="none" style="stroke: #0000FF; stroke-width: 1.0416666666666667;"/><polygon fill="#0000FF" points="670.676,1181.2198,673.2518,1171.2892,669.8234,1176.0817,665.0309,1172.6534,670.676,1181.2198" style="stroke: #0000FF; stroke-width: 1.0416666666666667;"/><path d="M634.975,805.6094 C634.6135,838.3083 634.1063,884.226 633.751,916.3281 " fill="none" style="stroke: #FF0000; stroke-width: 1.0416666666666667;"/><polygon fill="#FF0000" points="633.6917,921.7552,637.9625,912.4272,633.7497,916.5472,629.6297,912.3344,633.6917,921.7552" style="stroke: #FF0000; stroke-width: 1.0416666666666667;"/><path d="M245.8281,402.3229 C163.8198,536.6313 -43.8434,924.8042 155.2083,1128.125 C170.474,1143.7188 526.9531,1130.3979 547.9167,1136.4583 C577.4979,1145.0094 607.1729,1162.1854 630.5052,1178.1583 " fill="none" style="stroke: #0000FF; stroke-width: 1.0416666666666667;"/><polygon fill="#0000FF" points="634.7865,1181.124,629.4547,1172.359,630.5058,1178.1571,624.7077,1179.2081,634.7865,1181.124" style="stroke: #0000FF; stroke-width: 1.0416666666666667;"/><path d="M639.8104,240.3021 C711.2104,254.3229 799.6781,275.7604 875,306.25 C1064.6146,383.0052 1263.3646,529.1854 1342.5417,590.5354 " fill="none" style="stroke: #0000FF; stroke-width: 1.0416666666666667;"/><polygon fill="#0000FF" points="1346.6771,593.7469,1341.815,584.7129,1342.5588,590.5584,1336.7134,591.3021,1346.6771,593.7469" style="stroke: #0000FF; stroke-width: 1.0416666666666667;"/><path d="M593.2448,243.8229 C699.6031,280.4469 865.625,359.6 865.625,496.875 C865.625,496.875 865.625,496.875 865.625,956.25 C865.625,1050.3427 782.4333,1132.6792 726.2677,1177.5448 " fill="none" style="stroke: #0000FF; stroke-width: 1.0416666666666667;"/><polygon fill="#0000FF" points="721.9344,1180.975,731.8711,1178.423,726.018,1177.7423,726.6988,1171.8892,721.9344,1180.975" style="stroke: #0000FF; stroke-width: 1.0416666666666667;"/><path d="M463.2198,243.8646 C434.574,260.5833 395.9635,283.126 361.25,303.3885 " fill="none" style="stroke: #0000FF; stroke-width: 1.0416666666666667;"/><polygon fill="#0000FF" points="356.599,306.1031,366.7957,304.973,361.0964,303.4764,362.593,297.777,356.599,306.1031" style="stroke: #0000FF; stroke-width: 1.0416666666666667;"/><path d="M505.9667,243.9271 C505.4167,292.8875 504.2,401.2042 503.551,458.9271 " fill="none" style="stroke: #0000FF; stroke-width: 1.0416666666666667;"/><polygon fill="#0000FF" points="503.4906,464.351,507.7615,455.023,503.5487,459.143,499.4287,454.9302,503.4906,464.351" style="stroke: #0000FF; stroke-width: 1.0416666666666667;"/><path d="M372.7073,228.25 C258.3427,239.3125 105.7829,262.0312 64.5833,306.25 C6.3715,368.7208 40.625,411.4865 40.625,496.875 C40.625,496.875 40.625,496.875 40.625,620.8333 C40.625,749.0854 158.3417,862.6333 227.2927,918.1427 " fill="none" style="stroke: #0000FF; stroke-width: 1.0416666666666667;"/><polygon fill="#0000FF" points="231.7615,921.7146,227.0392,912.6068,227.6928,918.463,221.8366,919.1166,231.7615,921.7146" style="stroke: #0000FF; stroke-width: 1.0416666666666667;"/><path d="M351.3417,402.1844 C382.4688,421.6031 417.9385,443.7313 446.7573,461.7104 " fill="none" style="stroke: #0000FF; stroke-width: 1.0416666666666667;"/><polygon fill="#0000FF" points="451.324,464.5594,445.5736,456.0632,446.9045,461.8035,441.1642,463.1344,451.324,464.5594" style="stroke: #0000FF; stroke-width: 1.0416666666666667;"/><path d="M498.2458,531.524 C494.4302,567.7938 493.1385,627.0698 516.6667,670.8333 C527.0563,690.1594 543.3885,706.775 560.6531,720.3802 " fill="none" style="stroke: #FF0000; stroke-width: 1.0416666666666667;"/><polygon fill="#FF0000" points="565.0594,723.775,560.175,714.7531,560.9332,720.5967,555.0897,721.355,565.0594,723.775" style="stroke: #FF0000; stroke-width: 1.0416666666666667;"/><path d="M539.2073,531.376 C559.426,549.5417 584.4385,572.0135 604.0333,589.6177 " fill="none" style="stroke: #FF0000; stroke-width: 1.0416666666666667;"/><polygon fill="#FF0000" points="608.3813,593.525,604.1911,584.1605,604.5065,590.0446,598.6224,590.36,608.3813,593.525" style="stroke: #FF0000; stroke-width: 1.0416666666666667;"/><path d="M636.275,646.0177 C636.1281,666.0292 635.9208,694.5302 635.7458,718.4542 " fill="none" style="stroke: #FF0000; stroke-width: 1.0416666666666667;"/><polygon fill="#FF0000" points="635.7063,723.7979,639.9424,714.4541,635.7449,718.5897,631.6093,714.3922,635.7063,723.7979" style="stroke: #FF0000; stroke-width: 1.0416666666666667;"/><path d="M292.276,1103.2781 C290.0146,1125.8917 286.6885,1159.1531 284.2813,1183.2271 " fill="none" style="stroke: #008000; stroke-width: 1.0416666666666667;"/><polygon fill="#008000" points="283.7521,1188.5229,288.8302,1179.6086,284.2699,1183.3404,280.5381,1178.7801,283.7521,1188.5229" style="stroke: #008000; stroke-width: 1.0416666666666667;"/><path d="M340.5458,1103.1281 C356.8802,1112.7833 375.0771,1124.4063 390.625,1136.4583 C409.3542,1150.9771 428.4417,1169.4323 443.1813,1184.6448 " fill="none" style="stroke: #008000; stroke-width: 1.0416666666666667;"/><polygon fill="#008000" points="446.8313,1188.4385,443.3329,1178.7942,443.2198,1184.6857,437.3283,1184.5726,446.8313,1188.4385" style="stroke: #008000; stroke-width: 1.0416666666666667;"/><path d="M281.1156,988.6677 C283.8875,1006.375 287.299,1028.175 290.0219,1045.5688 " fill="none" style="stroke: #008000; stroke-width: 1.0416666666666667;"/><polygon fill="#008000" points="290.8438,1050.8167,293.5085,1040.9095,290.0373,1045.6712,285.2756,1042.1999,290.8438,1050.8167" style="stroke: #008000; stroke-width: 1.0416666666666667;"/><path d="M276.0417,402.2073 C276.0417,517.2177 276.0417,811.0698 276.0417,916.1167 " fill="none" style="stroke: #0000FF; stroke-width: 1.0416666666666667;"/><polygon fill="#0000FF" points="276.0417,921.5719,280.2083,912.1969,276.0417,916.3635,271.875,912.1969,276.0417,921.5719" style="stroke: #0000FF; stroke-width: 1.0416666666666667;"/></g></svg>