<?xml version="1.0" encoding="UTF-8" standalone="yes"?><svg xmlns="http://www.w3.org/2000/svg" xmlns:xlink="http://www.w3.org/1999/xlink" height="1125px" style="width:1773px;height:1125px;" version="1.1" viewBox="0 0 1773 1125" width="1773.9583px"><defs><filter height="300%" id="f1" width="300%" x="-1" y="-1"><feGaussianBlur result="blurOut" stdDeviation="2.0833333333333335"/><feColorMatrix in="blurOut" result="blurOut2" type="matrix" values="0 0 0 0 0 0 0 0 0 0 0 0 0 0 0 0 0 0 .4 0"/><feOffset dx="4.166666666666667" dy="4.166666666666667" in="blurOut2" result="blurOut3"/><feBlend in="SourceGraphic" in2="blurOut3" mode="normal"/></filter></defs><g><rect fill="#FEFECE" filter="url(#f1)" height="1092.7083" rx="13.0208" ry="13.0208" style="stroke: #A80036; stroke-width: 1.5625;" width="1156.25" x="22.9167" y="25"/><rect fill="#FFFFFF" height="1059.0658" rx="13.0208" ry="13.0208" style="stroke: #FFFFFF; stroke-width: 1.0416666666666667;" width="1150" x="26.0417" y="55.5176"/><line style="stroke: #A80036; stroke-width: 1.5625;" x1="22.9167" x2="1179.1667" y1="52.3926" y2="52.3926"/><text fill="#000000" font-family="sans-serif" font-size="14.5833" lengthAdjust="spacingAndGlyphs" textLength="112.5" x="544.7917" y="42.7032">Energiecampus</text><rect fill="#FEFECE" filter="url(#f1)" height="119.7917" rx="13.0208" ry="13.0208" style="stroke: #A80036; stroke-width: 1.5625;" width="629.1667" x="82.2917" y="972.9167"/><rect fill="#FFFFFF" height="86.1491" rx="13.0208" ry="13.0208" style="stroke: #FFFFFF; stroke-width: 1.0416666666666667;" width="622.9167" x="85.4167" y="1003.4342"/><line style="stroke: #A80036; stroke-width: 1.5625;" x1="82.2917" x2="711.4583" y1="1000.3092" y2="1000.3092"/><text fill="#000000" font-family="sans-serif" font-size="14.5833" lengthAdjust="spacingAndGlyphs" textLength="88.5417" x="352.6042" y="990.6199">Verbraucher</text><rect fill="#FEFECE" filter="url(#f1)" height="105.2083" rx="13.0208" ry="13.0208" style="stroke: #A80036; stroke-width: 1.5625;" width="562.5" x="1204.1667" y="427.0833"/><rect fill="#FFFFFF" height="71.5658" rx="13.0208" ry="13.0208" style="stroke: #FFFFFF; stroke-width: 1.0416666666666667;" width="556.25" x="1207.2917" y="457.6009"/><line style="stroke: #A80036; stroke-width: 1.5625;" x1="1204.1667" x2="1766.6667" y1="454.4759" y2="454.4759"/><text fill="#000000" font-family="sans-serif" font-size="14.5833" lengthAdjust="spacingAndGlyphs" textLength="70.8333" x="1450" y="444.7866">Versorger</text><rect fill="#FEFECE" filter="url(#f1)" height="81.4616" rx="13.0208" ry="13.0208" style="stroke: #A80036; stroke-width: 1.5625;" width="284.375" x="195.3125" y="578.125"/><line style="stroke: #A80036; stroke-width: 1.5625;" x1="195.3125" x2="479.6875" y1="605.5176" y2="605.5176"/><text fill="#000000" font-family="sans-serif" font-size="14.5833" lengthAdjust="spacingAndGlyphs" textLength="85.4167" x="294.7917" y="596.8699">Gasmischer</text><text fill="#000000" font-family="sans-serif" font-size="12.5" lengthAdjust="spacingAndGlyphs" textLength="180.2083" x="200.5208" y="622.3287">Wasserstoff aus Elektrolyse</text><text fill="#000000" font-family="sans-serif" font-size="12.5" lengthAdjust="spacingAndGlyphs" textLength="263.5417" x="200.5208" y="636.8795">Methanhaltiges Gas aus Methanisierung</text><text fill="#000000" font-family="sans-serif" font-size="12.5" lengthAdjust="spacingAndGlyphs" textLength="191.6667" x="200.5208" y="651.4303">Erdgas dem öffentlichen Netz</text><rect fill="#FEFECE" filter="url(#f1)" height="110.5632" rx="13.0208" ry="13.0208" style="stroke: #A80036; stroke-width: 1.5625;" width="580.2083" x="581.7708" y="721.875"/><line style="stroke: #A80036; stroke-width: 1.5625;" x1="581.7708" x2="1161.9792" y1="749.2676" y2="749.2676"/><text fill="#000000" font-family="sans-serif" font-size="14.5833" lengthAdjust="spacingAndGlyphs" textLength="168.75" x="787.5" y="740.6199">Wärmeübergabestation</text><text fill="#000000" font-family="sans-serif" font-size="12.5" lengthAdjust="spacingAndGlyphs" textLength="321.875" x="586.9792" y="766.0787">Fernwärmenetz zu Zentralheizung des Gebäudes.</text><text fill="#000000" font-family="sans-serif" font-size="12.5" lengthAdjust="spacingAndGlyphs" textLength="559.375" x="586.9792" y="780.6295">Zusätzlich zwei Power-to-heat Module als steuerbare elektrische Last genutzt werden.</text><text fill="#000000" font-family="sans-serif" font-size="12.5" lengthAdjust="spacingAndGlyphs" textLength="186.4583" x="586.9792" y="795.1803">Leistung (thermisch) : 15 kW</text><text fill="#000000" font-family="sans-serif" font-size="12.5" lengthAdjust="spacingAndGlyphs" textLength="236.4583" x="586.9792" y="809.731">Leistung (elektrisch) P2H: 1.2-18 kW</text><text fill="#000000" font-family="sans-serif" font-size="12.5" lengthAdjust="spacingAndGlyphs" textLength="258.3333" x="586.9792" y="824.2818">Rückkühler Leistung (thermisch): 45 kW</text><rect fill="#FEFECE" filter="url(#f1)" height="52.36" rx="13.0208" ry="13.0208" style="stroke: #A80036; stroke-width: 1.5625;" width="266.6667" x="369.7917" y="61.4583"/><line style="stroke: #A80036; stroke-width: 1.5625;" x1="369.7917" x2="636.4583" y1="88.8509" y2="88.8509"/><text fill="#000000" font-family="sans-serif" font-size="14.5833" lengthAdjust="spacingAndGlyphs" textLength="87.5" x="459.375" y="80.2032">Photovoltaik</text><text fill="#000000" font-family="sans-serif" font-size="12.5" lengthAdjust="spacingAndGlyphs" textLength="245.8333" x="375" y="105.662">Leistung (elektrisch) : ca. 10 kW peak</text><rect fill="#FEFECE" filter="url(#f1)" height="66.9108" rx="13.0208" ry="13.0208" style="stroke: #A80036; stroke-width: 1.5625;" width="389.5833" x="116.6667" y="743.75"/><line style="stroke: #A80036; stroke-width: 1.5625;" x1="116.6667" x2="506.25" y1="771.1426" y2="771.1426"/><text fill="#000000" font-family="sans-serif" font-size="14.5833" lengthAdjust="spacingAndGlyphs" textLength="135.4167" x="243.75" y="762.4949">Blockheizkraftwerk</text><text fill="#000000" font-family="sans-serif" font-size="12.5" lengthAdjust="spacingAndGlyphs" textLength="368.75" x="121.875" y="787.9537">Erdgas, Methanhaltiges Gas, Wasserstoff (maximal 20%)</text><text fill="#000000" font-family="sans-serif" font-size="12.5" lengthAdjust="spacingAndGlyphs" textLength="197.9167" x="121.875" y="802.5045">Leistung (elektrisch) : 5-16 kW</text><rect fill="#FEFECE" filter="url(#f1)" height="52.36" rx="13.0208" ry="13.0208" style="stroke: #A80036; stroke-width: 1.5625;" width="170.8333" x="458.3333" y="894.7917"/><line style="stroke: #A80036; stroke-width: 1.5625;" x1="458.3333" x2="629.1667" y1="922.1842" y2="922.1842"/><text fill="#000000" font-family="sans-serif" font-size="14.5833" lengthAdjust="spacingAndGlyphs" textLength="150" x="468.75" y="913.5366">thermischerSpeicher</text><text fill="#000000" font-family="sans-serif" font-size="12.5" lengthAdjust="spacingAndGlyphs" textLength="92.7083" x="463.5417" y="938.9954">1000 l Wasser</text><rect fill="#FEFECE" filter="url(#f1)" height="96.0124" rx="13.0208" ry="13.0208" style="stroke: #A80036; stroke-width: 1.5625;" width="385.4167" x="80.2083" y="176.0417"/><line style="stroke: #A80036; stroke-width: 1.5625;" x1="80.2083" x2="465.625" y1="203.4342" y2="203.4342"/><text fill="#000000" font-family="sans-serif" font-size="14.5833" lengthAdjust="spacingAndGlyphs" textLength="118.75" x="213.5417" y="194.7866">Batteriespeicher</text><text fill="#000000" font-family="sans-serif" font-size="12.5" lengthAdjust="spacingAndGlyphs" textLength="364.5833" x="85.4167" y="220.2454">Lithium-Ionen Akkumulatoren und Superkondensatoren.</text><text fill="#000000" font-family="sans-serif" font-size="12.5" lengthAdjust="spacingAndGlyphs" textLength="181.25" x="85.4167" y="234.7961">Leistung (elektrisch): 50 kW</text><text fill="#000000" font-family="sans-serif" font-size="12.5" lengthAdjust="spacingAndGlyphs" textLength="261.4583" x="85.4167" y="249.3469">Kapazität (elektrisch): 30 kWh + 300 Wh</text><text fill="#000000" font-family="sans-serif" font-size="12.5" lengthAdjust="spacingAndGlyphs" textLength="126.0417" x="85.4167" y="263.8977">Latenzzeit: &lt; 10 ms</text><rect fill="#FEFECE" filter="url(#f1)" height="66.9108" rx="13.0208" ry="13.0208" style="stroke: #A80036; stroke-width: 1.5625;" width="243.75" x="154.1667" y="334.375"/><line style="stroke: #A80036; stroke-width: 1.5625;" x1="154.1667" x2="397.9167" y1="361.7676" y2="361.7676"/><text fill="#000000" font-family="sans-serif" font-size="14.5833" lengthAdjust="spacingAndGlyphs" textLength="78.125" x="236.9792" y="353.1199">Elektrolyse</text><text fill="#000000" font-family="sans-serif" font-size="12.5" lengthAdjust="spacingAndGlyphs" textLength="185.4167" x="159.375" y="378.5787">Leistung (elektrisch) : 10 kW</text><text fill="#000000" font-family="sans-serif" font-size="12.5" lengthAdjust="spacingAndGlyphs" textLength="222.9167" x="159.375" y="393.1295">Wasserstoffproduktion : 2.92 m³/h</text><rect fill="#FEFECE" filter="url(#f1)" height="66.9108" rx="13.0208" ry="13.0208" style="stroke: #A80036; stroke-width: 1.5625;" width="207.2917" x="438.0208" y="334.375"/><line style="stroke: #A80036; stroke-width: 1.5625;" x1="438.0208" x2="645.3125" y1="361.7676" y2="361.7676"/><text fill="#000000" font-family="sans-serif" font-size="14.5833" lengthAdjust="spacingAndGlyphs" textLength="120.8333" x="481.25" y="353.1199">Elektroheizstäbe</text><text fill="#000000" font-family="sans-serif" font-size="12.5" lengthAdjust="spacingAndGlyphs" textLength="185.4167" x="443.2292" y="378.5787">Leistung (elektrisch) : 24 kW</text><text fill="#000000" font-family="sans-serif" font-size="12.5" lengthAdjust="spacingAndGlyphs" textLength="186.4583" x="443.2292" y="393.1295">Leistung (thermisch) : 11 kW</text><rect fill="#FEFECE" filter="url(#f1)" height="52.36" rx="13.0208" ry="13.0208" style="stroke: #A80036; stroke-width: 1.5625;" width="203.125" x="145.3125" y="463.5417"/><line style="stroke: #A80036; stroke-width: 1.5625;" x1="145.3125" x2="348.4375" y1="490.9342" y2="490.9342"/><text fill="#000000" font-family="sans-serif" font-size="14.5833" lengthAdjust="spacingAndGlyphs" textLength="111.4583" x="191.1458" y="482.2866">Methanisierung</text><text fill="#000000" font-family="sans-serif" font-size="12.5" lengthAdjust="spacingAndGlyphs" textLength="182.2917" x="150.5208" y="507.7454">Methanproduktion: 0.2 m³/h</text><rect fill="#FEFECE" filter="url(#f1)" height="66.9108" rx="13.0208" ry="13.0208" style="stroke: #A80036; stroke-width: 1.5625;" width="217.7083" x="99.4792" y="1009.375"/><line style="stroke: #A80036; stroke-width: 1.5625;" x1="99.4792" x2="317.1875" y1="1036.7676" y2="1036.7676"/><text fill="#000000" font-family="sans-serif" font-size="14.5833" lengthAdjust="spacingAndGlyphs" textLength="82.2917" x="167.1875" y="1028.1199">Elektroauto</text><text fill="#000000" font-family="sans-serif" font-size="12.5" lengthAdjust="spacingAndGlyphs" textLength="196.875" x="104.6875" y="1053.5787">Lade- Entlade-Leistung : ?? kW</text><text fill="#000000" font-family="sans-serif" font-size="12.5" lengthAdjust="spacingAndGlyphs" textLength="119.7917" x="104.6875" y="1068.1295">Kapazität : 22 kWh</text><rect fill="#FEFECE" filter="url(#f1)" height="52.36" rx="13.0208" ry="13.0208" style="stroke: #A80036; stroke-width: 1.5625;" width="120.8333" x="354.1667" y="1016.6667"/><line style="stroke: #A80036; stroke-width: 1.5625;" x1="354.1667" x2="475" y1="1044.0592" y2="1044.0592"/><text fill="#000000" font-family="sans-serif" font-size="14.5833" lengthAdjust="spacingAndGlyphs" textLength="100" x="364.5833" y="1035.4116">Raumheizung</text><text fill="#000000" font-family="sans-serif" font-size="12.5" lengthAdjust="spacingAndGlyphs" textLength="35.4167" x="359.375" y="1060.8704">?? kW</text><rect fill="#FEFECE" filter="url(#f1)" height="52.36" rx="13.0208" ry="13.0208" style="stroke: #A80036; stroke-width: 1.5625;" width="182.2917" x="511.9792" y="1016.6667"/><line style="stroke: #A80036; stroke-width: 1.5625;" x1="511.9792" x2="694.2708" y1="1044.0592" y2="1044.0592"/><text fill="#000000" font-family="sans-serif" font-size="14.5833" lengthAdjust="spacingAndGlyphs" textLength="161.4583" x="522.3958" y="1035.4116">Warmwasserbereitung</text><text fill="#000000" font-family="sans-serif" font-size="12.5" lengthAdjust="spacingAndGlyphs" textLength="35.4167" x="517.1875" y="1060.8704">?? kW</text><rect fill="#FEFECE" filter="url(#f1)" height="52.36" rx="13.0208" ry="13.0208" style="stroke: #A80036; stroke-width: 1.5625;" width="152.0833" x="1597.9167" y="463.5417"/><line style="stroke: #A80036; stroke-width: 1.5625;" x1="1597.9167" x2="1750" y1="490.9342" y2="490.9342"/><text fill="#000000" font-family="sans-serif" font-size="14.5833" lengthAdjust="spacingAndGlyphs" textLength="42.7083" x="1652.6042" y="482.2866">Strom</text><text fill="#000000" font-family="sans-serif" font-size="12.5" lengthAdjust="spacingAndGlyphs" textLength="131.25" x="1603.125" y="507.7454">elektrische Leistung</text><rect fill="#FEFECE" filter="url(#f1)" height="52.36" rx="13.0208" ry="13.0208" style="stroke: #A80036; stroke-width: 1.5625;" width="150" x="1220.8333" y="463.5417"/><line style="stroke: #A80036; stroke-width: 1.5625;" x1="1220.8333" x2="1370.8333" y1="490.9342" y2="490.9342"/><text fill="#000000" font-family="sans-serif" font-size="14.5833" lengthAdjust="spacingAndGlyphs" textLength="50" x="1270.8333" y="482.2866">Erdgas</text><text fill="#000000" font-family="sans-serif" font-size="12.5" lengthAdjust="spacingAndGlyphs" textLength="129.1667" x="1226.0417" y="507.7454">chemische Leistung</text><rect fill="#FEFECE" filter="url(#f1)" height="52.36" rx="13.0208" ry="13.0208" style="stroke: #A80036; stroke-width: 1.5625;" width="153.125" x="1407.8125" y="463.5417"/><line style="stroke: #A80036; stroke-width: 1.5625;" x1="1407.8125" x2="1560.9375" y1="490.9342" y2="490.9342"/><text fill="#000000" font-family="sans-serif" font-size="14.5833" lengthAdjust="spacingAndGlyphs" textLength="80.2083" x="1444.2708" y="482.2866">Fernwärme</text><text fill="#000000" font-family="sans-serif" font-size="12.5" lengthAdjust="spacingAndGlyphs" textLength="132.2917" x="1413.0208" y="507.7454">thermische Leistung</text><path d="M1657.1042,515.8927 C1601.0313,597.3938 1411.1042,853.4427 1179.1667,946.875 C1092.1875,981.9125 425.4542,938.3896 335.4167,964.5833 C306.149,973.0979 276.8323,990.1667 253.7448,1006.0833 " fill="none" style="stroke: #0000FF; stroke-width: 1.0416666666666667;"/><polygon fill="#0000FF" points="249.2125,1009.2479,259.2842,1007.2953,253.4823,1006.2654,254.5122,1000.4636,249.2125,1009.2479" style="stroke: #0000FF; stroke-width: 1.0416666666666667;"/><path d="M1246.7917,515.7073 C1226.3854,525.0594 1202.1354,534.8073 1179.1667,540.625 C941.3615,600.8677 655.1958,615.301 485.2563,618.0656 " fill="none" style="stroke: #FF0000; stroke-width: 1.0416666666666667;"/><polygon fill="#FF0000" points="479.7615,618.151,489.2008,622.1699,484.9691,618.0692,489.0698,613.8376,479.7615,618.151" style="stroke: #FF0000; stroke-width: 1.0416666666666667;"/><path d="M1437.8854,515.8417 C1422.5938,523.9479 1405.4479,532.8396 1389.5833,540.625 C1258.8021,604.7823 1106.8229,673.1792 1001.5031,719.6208 " fill="none" style="stroke: #008000; stroke-width: 1.0416666666666667;"/><polygon fill="#008000" points="996.524,721.8156,1006.7831,721.8493,1001.2903,719.7159,1003.4236,714.2231,996.524,721.8156" style="stroke: #008000; stroke-width: 1.0416666666666667;"/><path d="M364.4594,810.449 C404.7344,835.0104 459.5625,868.449 497.9469,891.8583 " fill="none" style="stroke: #008000; stroke-width: 1.0416666666666667;"/><polygon fill="#008000" points="502.5448,894.6615,496.7098,886.2232,498.098,891.9499,492.3713,893.3381,502.5448,894.6615" style="stroke: #008000; stroke-width: 1.0416666666666667;"/><path d="M298.8135,810.4406 C279.6396,859.4406 243.3,952.3073 222.9958,1004.1958 " fill="none" style="stroke: #0000FF; stroke-width: 1.0416666666666667;"/><polygon fill="#0000FF" points="221.0823,1009.0865,228.3782,1001.8739,222.9799,1004.2361,220.6176,998.8378,221.0823,1009.0865" style="stroke: #0000FF; stroke-width: 1.0416666666666667;"/><path d="M330.8615,659.624 C326.826,683.8333 321.7052,714.5594 317.7375,738.3656 " fill="none" style="stroke: #FF0000; stroke-width: 1.0416666666666667;"/><polygon fill="#FF0000" points="316.8583,743.6427,322.5112,735.0813,317.7155,738.5054,314.2915,733.7098,316.8583,743.6427" style="stroke: #FF0000; stroke-width: 1.0416666666666667;"/><path d="M745.9521,832.4917 C698.3865,853.0281 646.2948,875.5188 606.8969,892.5281 " fill="none" style="stroke: #008000; stroke-width: 1.0416666666666667;"/><polygon fill="#008000" points="601.6688,894.7854,611.9274,894.8964,606.4508,892.7217,608.6255,887.2451,601.6688,894.7854" style="stroke: #008000; stroke-width: 1.0416666666666667;"/><path d="M198.9823,271.926 C176.15,289.2958 152.5344,310.6167 135.4167,334.375 C92.7803,393.5521 79.1667,415.6052 79.1667,488.5417 C79.1667,488.5417 79.1667,488.5417 79.1667,778.125 C79.1667,866.6604 138.6708,956.4198 176.9042,1004.9552 " fill="none" style="stroke: #0000FF; stroke-width: 1.0416666666666667;"/><polygon fill="#0000FF" points="180.3063,1009.2365,177.7366,999.3043,177.0663,1005.1586,171.212,1004.4882,180.3063,1009.2365" style="stroke: #0000FF; stroke-width: 1.0416666666666667;"/><path d="M633.1073,113.5917 C840.9219,156.8458 1257.3229,256.801 1579.1667,418.75 C1601.2083,429.8438 1623.5521,446.0021 1641,459.9781 " fill="none" style="stroke: #0000FF; stroke-width: 1.0416666666666667;"/><polygon fill="#0000FF" points="1645.3333,463.4792,1640.6628,454.3447,1641.2832,460.2045,1635.4234,460.8249,1645.3333,463.4792" style="stroke: #0000FF; stroke-width: 1.0416666666666667;"/><path d="M369.6917,97.8552 C255.1802,108.8031 102.3321,131.4604 61.4583,176.0417 C3.8629,238.8615 40.625,281.4396 40.625,366.6667 C40.625,366.6667 40.625,366.6667 40.625,778.125 C40.625,857.9438 57.2911,880.8083 102.0833,946.875 C117.1729,969.1313 138.6208,989.5875 158.301,1005.7552 " fill="none" style="stroke: #0000FF; stroke-width: 1.0416666666666667;"/><polygon fill="#0000FF" points="162.7323,1009.349,158.0768,1000.2068,158.6876,1006.0676,152.8268,1006.6784,162.7323,1009.349" style="stroke: #0000FF; stroke-width: 1.0416666666666667;"/><path d="M460.0948,113.6594 C431.449,130.3792 392.8385,152.9177 358.125,173.1802 " fill="none" style="stroke: #0000FF; stroke-width: 1.0416666666666667;"/><polygon fill="#0000FF" points="353.474,175.8948,363.6707,174.7646,357.9714,173.2681,359.468,167.5687,353.474,175.8948" style="stroke: #0000FF; stroke-width: 1.0416666666666667;"/><path d="M503.4031,113.5479 C503.4188,157.6979 501.1677,247.1417 483.3333,271.875 C463.5063,299.3729 433.7354,319.0813 402.8969,333.1354 " fill="none" style="stroke: #0000FF; stroke-width: 1.0416666666666667;"/><polygon fill="#0000FF" points="397.9396,335.3427,408.1988,335.3344,402.6973,333.2235,404.8081,327.722,397.9396,335.3427" style="stroke: #0000FF; stroke-width: 1.0416666666666667;"/><path d="M506.6135,113.7135 C513.399,162.6792 528.4083,270.9958 536.4083,328.7188 " fill="none" style="stroke: #0000FF; stroke-width: 1.0416666666666667;"/><polygon fill="#0000FF" points="537.1594,334.1427,540.001,324.2849,536.4451,328.9836,531.7464,325.4277,537.1594,334.1427" style="stroke: #0000FF; stroke-width: 1.0416666666666667;"/><path d="M273.9573,272.1729 C274.3625,290.5552 274.8208,311.3385 275.2052,328.724 " fill="none" style="stroke: #0000FF; stroke-width: 1.0416666666666667;"/><polygon fill="#0000FF" points="275.3208,334.0042,279.2803,324.5398,275.2063,328.7971,270.949,324.7231,275.3208,334.0042" style="stroke: #0000FF; stroke-width: 1.0416666666666667;"/><path d="M351.6969,401.1729 C357.5729,406.2667 362.7385,412.0958 366.6667,418.75 C394.551,465.9823 377.2229,530.1781 359.676,572.726 " fill="none" style="stroke: #FF0000; stroke-width: 1.0416666666666667;"/><polygon fill="#FF0000" points="357.5375,577.8042,365.0151,570.7801,359.5582,573.0038,357.3345,567.5469,357.5375,577.8042" style="stroke: #FF0000; stroke-width: 1.0416666666666667;"/><path d="M268.149,401.1677 C263.8375,418.875 258.5292,440.675 254.2948,458.0688 " fill="none" style="stroke: #FF0000; stroke-width: 1.0416666666666667;"/><polygon fill="#FF0000" points="253.0167,463.3167,259.2833,455.1938,254.249,458.2562,251.1866,453.222,253.0167,463.3167" style="stroke: #FF0000; stroke-width: 1.0416666666666667;"/><path d="M264.7792,515.7323 C276.4813,532.1417 292.0885,554.0281 305.8438,573.3167 " fill="none" style="stroke: #FF0000; stroke-width: 1.0416666666666667;"/><polygon fill="#FF0000" points="308.9302,577.6458,306.8787,567.5938,305.9059,573.4055,300.0942,572.4327,308.9302,577.6458" style="stroke: #FF0000; stroke-width: 1.0416666666666667;"/><path d="M556.1969,946.9875 C565.5385,965.8344 578.3667,991.7146 588.249,1011.6542 " fill="none" style="stroke: #008000; stroke-width: 1.0416666666666667;"/><polygon fill="#008000" points="590.6948,1016.5875,590.2656,1006.3373,588.3822,1011.9207,582.7988,1010.0373,590.6948,1016.5875" style="stroke: #008000; stroke-width: 1.0416666666666667;"/><path d="M513.5969,947.0813 C506.9865,952.7583 500.076,958.8135 493.75,964.5833 C476.7792,980.0635 458.3635,997.926 443.5688,1012.5563 " fill="none" style="stroke: #008000; stroke-width: 1.0416666666666667;"/><polygon fill="#008000" points="439.4958,1016.5927,449.0882,1012.9544,443.1958,1012.927,443.2231,1007.0345,439.4958,1016.5927" style="stroke: #008000; stroke-width: 1.0416666666666667;"/><path d="M541.7896,401.1625 C542.1604,499.4448 543.2719,793.2313 543.6344,889.1375 " fill="none" style="stroke: #0000FF; stroke-width: 1.0416666666666667;"/><polygon fill="#0000FF" points="543.6552,894.6302,547.787,885.2398,543.6359,889.4219,539.4537,885.2707,543.6552,894.6302" style="stroke: #0000FF; stroke-width: 1.0416666666666667;"/><path d="M362.0333,271.976 C399.024,291.475 441.1948,313.7052 475.3771,331.724 " fill="none" style="stroke: #0000FF; stroke-width: 1.0416666666666667;"/><polygon fill="#0000FF" points="480.3615,334.351,474.0111,326.2935,475.7541,331.9223,470.1252,333.6653,480.3615,334.351" style="stroke: #0000FF; stroke-width: 1.0416666666666667;"/></g></svg>