<?xml version="1.0" encoding="UTF-8" standalone="yes"?><svg xmlns="http://www.w3.org/2000/svg" xmlns:xlink="http://www.w3.org/1999/xlink" height="1151.0417px" style="width:1453px;height:1151px;" version="1.1" viewBox="0 0 1453 1151" width="1453.125px"><defs><filter height="300%" id="f1" width="300%" x="-1" y="-1"><feGaussianBlur result="blurOut" stdDeviation="2.0833333333333335"/><feColorMatrix in="blurOut" result="blurOut2" type="matrix" values="0 0 0 0 0 0 0 0 0 0 0 0 0 0 0 0 0 0 .4 0"/><feOffset dx="4.166666666666667" dy="4.166666666666667" in="blurOut2" result="blurOut3"/><feBlend in="SourceGraphic" in2="blurOut3" mode="normal"/></filter></defs><g><rect fill="#FEFECE" filter="url(#f1)" height="1118.75" rx="13.0208" ry="13.0208" style="stroke: #A80036; stroke-width: 1.5625;" width="835.4167" x="22.9167" y="25"/><rect fill="#FFFFFF" height="1085.1074" rx="13.0208" ry="13.0208" style="stroke: #FFFFFF; stroke-width: 1.0416666666666667;" width="829.1667" x="26.0417" y="55.5176"/><line style="stroke: #A80036; stroke-width: 1.5625;" x1="22.9167" x2="858.3333" y1="52.3926" y2="52.3926"/><text fill="#000000" font-family="sans-serif" font-size="14.5833" lengthAdjust="spacingAndGlyphs" textLength="112.5" x="384.375" y="42.7032">Energiecampus</text><rect fill="#FEFECE" filter="url(#f1)" height="297.9167" rx="13.0208" ry="13.0208" style="stroke: #A80036; stroke-width: 1.5625;" width="338.5417" x="58.3333" y="676.0417"/><rect fill="#FFFFFF" height="200.8626" rx="13.0208" ry="13.0208" style="stroke: #FFFFFF; stroke-width: 1.0416666666666667;" width="332.2917" x="61.4583" y="769.9707"/><line style="stroke: #A80036; stroke-width: 1.5625;" x1="58.3333" x2="396.875" y1="766.8457" y2="766.8457"/><line style="stroke: #A80036; stroke-width: 1.5625;" x1="58.3333" x2="396.875" y1="703.4342" y2="703.4342"/><text fill="#000000" font-family="sans-serif" font-size="14.5833" lengthAdjust="spacingAndGlyphs" textLength="168.75" x="66.6667" y="693.7449">Wärmeübergabestation</text><text fill="#000000" font-family="sans-serif" font-size="12.5" lengthAdjust="spacingAndGlyphs" textLength="321.875" x="63.5417" y="717.6412">Fernwärmenetz zu Zentralheizung des Gebäudes.</text><text fill="#000000" font-family="sans-serif" font-size="12.5" lengthAdjust="spacingAndGlyphs" textLength="186.4583" x="63.5417" y="732.192">Leistung (thermisch) : 15 kW</text><text fill="#000000" font-family="sans-serif" font-size="12.5" lengthAdjust="spacingAndGlyphs" textLength="316.6667" x="63.5417" y="746.7428">Leistung (elektrisch) (power to heat) : 1.2-18 kW</text><text fill="#000000" font-family="sans-serif" font-size="12.5" lengthAdjust="spacingAndGlyphs" textLength="258.3333" x="63.5417" y="761.2935">Rückkühler Leistung (thermisch): 45 kW</text><rect fill="#FEFECE" filter="url(#f1)" height="119.7917" rx="13.0208" ry="13.0208" style="stroke: #A80036; stroke-width: 1.5625;" width="629.1667" x="163.5417" y="998.9583"/><rect fill="#FFFFFF" height="86.1491" rx="13.0208" ry="13.0208" style="stroke: #FFFFFF; stroke-width: 1.0416666666666667;" width="622.9167" x="166.6667" y="1029.4759"/><line style="stroke: #A80036; stroke-width: 1.5625;" x1="163.5417" x2="792.7083" y1="1026.3509" y2="1026.3509"/><text fill="#000000" font-family="sans-serif" font-size="14.5833" lengthAdjust="spacingAndGlyphs" textLength="88.5417" x="433.8542" y="1016.6616">Verbraucher</text><rect fill="#FEFECE" filter="url(#f1)" height="105.2083" rx="13.0208" ry="13.0208" style="stroke: #A80036; stroke-width: 1.5625;" width="562.5" x="883.3333" y="427.0833"/><rect fill="#FFFFFF" height="71.5658" rx="13.0208" ry="13.0208" style="stroke: #FFFFFF; stroke-width: 1.0416666666666667;" width="556.25" x="886.4583" y="457.6009"/><line style="stroke: #A80036; stroke-width: 1.5625;" x1="883.3333" x2="1445.8333" y1="454.4759" y2="454.4759"/><text fill="#000000" font-family="sans-serif" font-size="14.5833" lengthAdjust="spacingAndGlyphs" textLength="70.8333" x="1129.1667" y="444.7866">Versorger</text><rect fill="#FEFECE" filter="url(#f1)" height="81.4616" rx="13.0208" ry="13.0208" style="stroke: #A80036; stroke-width: 1.5625;" width="284.375" x="518.2292" y="578.125"/><line style="stroke: #A80036; stroke-width: 1.5625;" x1="518.2292" x2="802.6042" y1="605.5176" y2="605.5176"/><text fill="#000000" font-family="sans-serif" font-size="14.5833" lengthAdjust="spacingAndGlyphs" textLength="85.4167" x="617.7083" y="596.8699">Gasmischer</text><text fill="#000000" font-family="sans-serif" font-size="12.5" lengthAdjust="spacingAndGlyphs" textLength="180.2083" x="523.4375" y="622.3287">Wasserstoff aus Elektrolyse</text><text fill="#000000" font-family="sans-serif" font-size="12.5" lengthAdjust="spacingAndGlyphs" textLength="263.5417" x="523.4375" y="636.8795">Methanhaltiges Gas aus Methanisierung</text><text fill="#000000" font-family="sans-serif" font-size="12.5" lengthAdjust="spacingAndGlyphs" textLength="191.6667" x="523.4375" y="651.4303">Erdgas dem öffentlichen Netz</text><rect fill="#FEFECE" filter="url(#f1)" height="52.36" rx="13.0208" ry="13.0208" style="stroke: #A80036; stroke-width: 1.5625;" width="266.6667" x="506.25" y="61.4583"/><line style="stroke: #A80036; stroke-width: 1.5625;" x1="506.25" x2="772.9167" y1="88.8509" y2="88.8509"/><text fill="#000000" font-family="sans-serif" font-size="14.5833" lengthAdjust="spacingAndGlyphs" textLength="87.5" x="595.8333" y="80.2032">Photovoltaik</text><text fill="#000000" font-family="sans-serif" font-size="12.5" lengthAdjust="spacingAndGlyphs" textLength="245.8333" x="511.4583" y="105.662">Leistung (elektrisch) : ca. 10 kW peak</text><rect fill="#FEFECE" filter="url(#f1)" height="66.9108" rx="13.0208" ry="13.0208" style="stroke: #A80036; stroke-width: 1.5625;" width="389.5833" x="413.5417" y="776.0417"/><line style="stroke: #A80036; stroke-width: 1.5625;" x1="413.5417" x2="803.125" y1="803.4342" y2="803.4342"/><text fill="#000000" font-family="sans-serif" font-size="14.5833" lengthAdjust="spacingAndGlyphs" textLength="135.4167" x="540.625" y="794.7866">Blockheizkraftwerk</text><text fill="#000000" font-family="sans-serif" font-size="12.5" lengthAdjust="spacingAndGlyphs" textLength="368.75" x="418.75" y="820.2454">Erdgas, Methanhaltiges Gas, Wasserstoff (maximal 20%)</text><text fill="#000000" font-family="sans-serif" font-size="12.5" lengthAdjust="spacingAndGlyphs" textLength="197.9167" x="418.75" y="834.7961">Leistung (elektrisch) : 5-16 kW</text><rect fill="#FEFECE" filter="url(#f1)" height="96.0124" rx="13.0208" ry="13.0208" style="stroke: #A80036; stroke-width: 1.5625;" width="385.4167" x="57.2917" y="176.0417"/><line style="stroke: #A80036; stroke-width: 1.5625;" x1="57.2917" x2="442.7083" y1="203.4342" y2="203.4342"/><text fill="#000000" font-family="sans-serif" font-size="14.5833" lengthAdjust="spacingAndGlyphs" textLength="118.75" x="190.625" y="194.7866">Batteriespeicher</text><text fill="#000000" font-family="sans-serif" font-size="12.5" lengthAdjust="spacingAndGlyphs" textLength="364.5833" x="62.5" y="220.2454">Lithium-Ionen Akkumulatoren und Superkondensatoren.</text><text fill="#000000" font-family="sans-serif" font-size="12.5" lengthAdjust="spacingAndGlyphs" textLength="181.25" x="62.5" y="234.7961">Leistung (elektrisch): 50 kW</text><text fill="#000000" font-family="sans-serif" font-size="12.5" lengthAdjust="spacingAndGlyphs" textLength="261.4583" x="62.5" y="249.3469">Kapazität (elektrisch): 30 kWh + 300 Wh</text><text fill="#000000" font-family="sans-serif" font-size="12.5" lengthAdjust="spacingAndGlyphs" textLength="126.0417" x="62.5" y="263.8977">Latenzzeit: &lt; 10 ms</text><rect fill="#FEFECE" filter="url(#f1)" height="66.9108" rx="13.0208" ry="13.0208" style="stroke: #A80036; stroke-width: 1.5625;" width="243.75" x="517.7083" y="334.375"/><line style="stroke: #A80036; stroke-width: 1.5625;" x1="517.7083" x2="761.4583" y1="361.7676" y2="361.7676"/><text fill="#000000" font-family="sans-serif" font-size="14.5833" lengthAdjust="spacingAndGlyphs" textLength="78.125" x="600.5208" y="353.1199">Elektrolyse</text><text fill="#000000" font-family="sans-serif" font-size="12.5" lengthAdjust="spacingAndGlyphs" textLength="185.4167" x="522.9167" y="378.5787">Leistung (elektrisch) : 10 kW</text><text fill="#000000" font-family="sans-serif" font-size="12.5" lengthAdjust="spacingAndGlyphs" textLength="222.9167" x="522.9167" y="393.1295">Wasserstoffproduktion : 2.92 m³/h</text><rect fill="#FEFECE" filter="url(#f1)" height="52.36" rx="13.0208" ry="13.0208" style="stroke: #A80036; stroke-width: 1.5625;" width="203.125" x="578.6458" y="463.5417"/><line style="stroke: #A80036; stroke-width: 1.5625;" x1="578.6458" x2="781.7708" y1="490.9342" y2="490.9342"/><text fill="#000000" font-family="sans-serif" font-size="14.5833" lengthAdjust="spacingAndGlyphs" textLength="111.4583" x="624.4792" y="482.2866">Methanisierung</text><text fill="#000000" font-family="sans-serif" font-size="12.5" lengthAdjust="spacingAndGlyphs" textLength="182.2917" x="583.8542" y="507.7454">Methanproduktion: 0.2 m³/h</text><rect fill="#FEFECE" filter="url(#f1)" height="66.9108" rx="13.0208" ry="13.0208" style="stroke: #A80036; stroke-width: 1.5625;" width="207.2917" x="169.2708" y="776.0417"/><line style="stroke: #A80036; stroke-width: 1.5625;" x1="169.2708" x2="376.5625" y1="803.4342" y2="803.4342"/><text fill="#000000" font-family="sans-serif" font-size="14.5833" lengthAdjust="spacingAndGlyphs" textLength="120.8333" x="212.5" y="794.7866">Elektroheizstäbe</text><text fill="#000000" font-family="sans-serif" font-size="12.5" lengthAdjust="spacingAndGlyphs" textLength="185.4167" x="174.4792" y="820.2454">Leistung (elektrisch) : 24 kW</text><text fill="#000000" font-family="sans-serif" font-size="12.5" lengthAdjust="spacingAndGlyphs" textLength="186.4583" x="174.4792" y="834.7961">Leistung (thermisch) : 11 kW</text><rect fill="#FEFECE" filter="url(#f1)" height="52.36" rx="13.0208" ry="13.0208" style="stroke: #A80036; stroke-width: 1.5625;" width="170.8333" x="206.25" y="905.2083"/><line style="stroke: #A80036; stroke-width: 1.5625;" x1="206.25" x2="377.0833" y1="932.6009" y2="932.6009"/><text fill="#000000" font-family="sans-serif" font-size="14.5833" lengthAdjust="spacingAndGlyphs" textLength="150" x="216.6667" y="923.9532">thermischerSpeicher</text><text fill="#000000" font-family="sans-serif" font-size="12.5" lengthAdjust="spacingAndGlyphs" textLength="92.7083" x="211.4583" y="949.412">1000 l Wasser</text><rect fill="#FEFECE" filter="url(#f1)" height="66.9108" rx="13.0208" ry="13.0208" style="stroke: #A80036; stroke-width: 1.5625;" width="217.7083" x="557.8125" y="1035.4167"/><line style="stroke: #A80036; stroke-width: 1.5625;" x1="557.8125" x2="775.5208" y1="1062.8092" y2="1062.8092"/><text fill="#000000" font-family="sans-serif" font-size="14.5833" lengthAdjust="spacingAndGlyphs" textLength="82.2917" x="625.5208" y="1054.1616">Elektroauto</text><text fill="#000000" font-family="sans-serif" font-size="12.5" lengthAdjust="spacingAndGlyphs" textLength="196.875" x="563.0208" y="1079.6204">Lade- Entlade-Leistung : ?? kW</text><text fill="#000000" font-family="sans-serif" font-size="12.5" lengthAdjust="spacingAndGlyphs" textLength="119.7917" x="563.0208" y="1094.1711">Kapazität : 22 kWh</text><rect fill="#FEFECE" filter="url(#f1)" height="52.36" rx="13.0208" ry="13.0208" style="stroke: #A80036; stroke-width: 1.5625;" width="120.8333" x="400" y="1042.7083"/><line style="stroke: #A80036; stroke-width: 1.5625;" x1="400" x2="520.8333" y1="1070.1009" y2="1070.1009"/><text fill="#000000" font-family="sans-serif" font-size="14.5833" lengthAdjust="spacingAndGlyphs" textLength="100" x="410.4167" y="1061.4532">Raumheizung</text><text fill="#000000" font-family="sans-serif" font-size="12.5" lengthAdjust="spacingAndGlyphs" textLength="35.4167" x="405.2083" y="1086.912">?? kW</text><rect fill="#FEFECE" filter="url(#f1)" height="52.36" rx="13.0208" ry="13.0208" style="stroke: #A80036; stroke-width: 1.5625;" width="182.2917" x="180.7292" y="1042.7083"/><line style="stroke: #A80036; stroke-width: 1.5625;" x1="180.7292" x2="363.0208" y1="1070.1009" y2="1070.1009"/><text fill="#000000" font-family="sans-serif" font-size="14.5833" lengthAdjust="spacingAndGlyphs" textLength="161.4583" x="191.1458" y="1061.4532">Warmwasserbereitung</text><text fill="#000000" font-family="sans-serif" font-size="12.5" lengthAdjust="spacingAndGlyphs" textLength="35.4167" x="185.9375" y="1086.912">?? kW</text><rect fill="#FEFECE" filter="url(#f1)" height="52.36" rx="13.0208" ry="13.0208" style="stroke: #A80036; stroke-width: 1.5625;" width="152.0833" x="1277.0833" y="463.5417"/><line style="stroke: #A80036; stroke-width: 1.5625;" x1="1277.0833" x2="1429.1667" y1="490.9342" y2="490.9342"/><text fill="#000000" font-family="sans-serif" font-size="14.5833" lengthAdjust="spacingAndGlyphs" textLength="42.7083" x="1331.7708" y="482.2866">Strom</text><text fill="#000000" font-family="sans-serif" font-size="12.5" lengthAdjust="spacingAndGlyphs" textLength="131.25" x="1282.2917" y="507.7454">elektrische Leistung</text><rect fill="#FEFECE" filter="url(#f1)" height="52.36" rx="13.0208" ry="13.0208" style="stroke: #A80036; stroke-width: 1.5625;" width="150" x="900" y="463.5417"/><line style="stroke: #A80036; stroke-width: 1.5625;" x1="900" x2="1050" y1="490.9342" y2="490.9342"/><text fill="#000000" font-family="sans-serif" font-size="14.5833" lengthAdjust="spacingAndGlyphs" textLength="50" x="950" y="482.2866">Erdgas</text><text fill="#000000" font-family="sans-serif" font-size="12.5" lengthAdjust="spacingAndGlyphs" textLength="129.1667" x="905.2083" y="507.7454">chemische Leistung</text><rect fill="#FEFECE" filter="url(#f1)" height="52.36" rx="13.0208" ry="13.0208" style="stroke: #A80036; stroke-width: 1.5625;" width="153.125" x="1086.9792" y="463.5417"/><line style="stroke: #A80036; stroke-width: 1.5625;" x1="1086.9792" x2="1240.1042" y1="490.9342" y2="490.9342"/><text fill="#000000" font-family="sans-serif" font-size="14.5833" lengthAdjust="spacingAndGlyphs" textLength="80.2083" x="1123.4375" y="482.2866">Fernwärme</text><text fill="#000000" font-family="sans-serif" font-size="12.5" lengthAdjust="spacingAndGlyphs" textLength="132.2917" x="1092.1875" y="507.7454">thermische Leistung</text><path d="M1333.5104,515.7896 C1271.4063,594.0854 1070.6146,836.8333 858.3333,982.2917 C828.951,1002.424 794.0563,1019.6375 762.1448,1033.225 " fill="none" style="stroke: #0000FF; stroke-width: 1.0416666666666667;"/><polygon fill="#0000FF" points="757.05,1035.375,767.3074,1035.5687,761.8485,1033.3499,764.0673,1027.8911,757.05,1035.375" style="stroke: #0000FF; stroke-width: 1.0416666666666667;"/><path d="M917.6,515.6771 C898.7729,523.774 877.7104,532.7021 858.3333,540.625 C829.6177,552.3667 798.4,564.7156 769.426,576.0063 " fill="none" style="stroke: #FF0000; stroke-width: 1.0416666666666667;"/><polygon fill="#FF0000" points="764.4208,577.9542,774.6688,578.4356,769.2743,576.0646,771.6454,570.6701,764.4208,577.9542" style="stroke: #FF0000; stroke-width: 1.0416666666666667;"/><path d="M1150.125,515.9625 C1113.4583,582.3698 1004.5385,761.9042 858.3333,842.7083 C778.2823,886.951 521.1719,912.7625 382.4427,923.8073 " fill="none" style="stroke: #008000; stroke-width: 1.0416666666666667;"/><polygon fill="#008000" points="377.151,924.226,386.8254,927.6404,382.3432,923.8153,386.1683,919.333,377.151,924.226" style="stroke: #008000; stroke-width: 1.0416666666666667;"/><path d="M522.6385,842.8344 C472.625,861.7542 410.2646,885.3438 362.9521,903.2417 " fill="none" style="stroke: #008000; stroke-width: 1.0416666666666667;"/><polygon fill="#008000" points="357.8406,905.175,368.0834,905.7565,362.7123,903.3329,365.1359,897.9618,357.8406,905.175" style="stroke: #008000; stroke-width: 1.0416666666666667;"/><path d="M615.7208,843.0031 C626.5479,890.7542 646.675,979.5292 658.1229,1030.024 " fill="none" style="stroke: #0000FF; stroke-width: 1.0416666666666667;"/><polygon fill="#0000FF" points="659.3385,1035.3865,661.3286,1025.3221,658.1866,1030.3071,653.2016,1027.1651,659.3385,1035.3865" style="stroke: #0000FF; stroke-width: 1.0416666666666667;"/><path d="M649.3708,659.776 C640.301,692.6104 627.549,738.7719 618.676,770.8917 " fill="none" style="stroke: #FF0000; stroke-width: 1.0416666666666667;"/><polygon fill="#FF0000" points="617.2865,775.9219,623.7989,767.9947,618.6732,770.9016,615.7664,765.7759,617.2865,775.9219" style="stroke: #FF0000; stroke-width: 1.0416666666666667;"/><path d="M179.699,272.0427 C118.8729,318.9615 40.625,397.0896 40.625,488.5417 C40.625,488.5417 40.625,488.5417 40.625,810.4167 C40.625,901.4615 72.5589,937.9625 152.0833,982.2917 C170.8406,992.7479 517.9125,984.6573 538.5417,990.625 C567.9979,999.1458 597.55,1016.2156 620.8385,1032.1302 " fill="none" style="stroke: #0000FF; stroke-width: 1.0416666666666667;"/><polygon fill="#0000FF" points="625.4104,1035.2948,620.0745,1026.5324,621.1283,1032.3299,615.3308,1033.3837,625.4104,1035.2948" style="stroke: #0000FF; stroke-width: 1.0416666666666667;"/><path d="M706.5344,113.5625 C748.4281,129.9125 803.149,152.526 850,176.0417 C1038.6854,270.7479 1082.375,302.0875 1258.3333,418.75 C1277.9583,431.7635 1299.125,447.2021 1316.4688,460.2469 " fill="none" style="stroke: #0000FF; stroke-width: 1.0416666666666667;"/><polygon fill="#0000FF" points="1320.7917,463.5083,1315.8214,454.5335,1316.6354,460.3695,1310.7993,461.1835,1320.7917,463.5083" style="stroke: #0000FF; stroke-width: 1.0416666666666667;"/><path d="M675.0625,113.625 C732.7781,157.6854 840.625,254.9552 840.625,366.6667 C840.625,366.6667 840.625,366.6667 840.625,810.4167 C840.625,902.3813 763.4094,986.0104 711.8667,1031.5896 " fill="none" style="stroke: #0000FF; stroke-width: 1.0416666666666667;"/><polygon fill="#0000FF" points="707.8927,1035.074,717.6893,1032.0278,711.8094,1031.6409,712.1963,1025.761,707.8927,1035.074" style="stroke: #0000FF; stroke-width: 1.0416666666666667;"/><path d="M566.7625,113.6563 C517.3865,130.6896 450.5156,153.7552 390.9385,174.3042 " fill="none" style="stroke: #0000FF; stroke-width: 1.0416666666666667;"/><polygon fill="#0000FF" points="385.9323,176.0313,396.1534,176.9142,390.8561,174.3334,393.4369,169.0361,385.9323,176.0313" style="stroke: #0000FF; stroke-width: 1.0416666666666667;"/><path d="M639.5833,113.7187 C639.5833,162.6792 639.5833,270.9958 639.5833,328.7188 " fill="none" style="stroke: #0000FF; stroke-width: 1.0416666666666667;"/><polygon fill="#0000FF" points="639.5833,334.1427,643.75,324.7677,639.5833,328.9344,635.4167,324.7677,639.5833,334.1427" style="stroke: #0000FF; stroke-width: 1.0416666666666667;"/><path d="M612.9073,113.75 C567.5375,159.4792 480.2083,261.2073 480.2083,366.6667 C480.2083,366.6667 480.2083,366.6667 480.2083,490.625 C480.2083,523.1542 356.75,694.6948 300.3885,771.3135 " fill="none" style="stroke: #0000FF; stroke-width: 1.0416666666666667;"/><polygon fill="#0000FF" points="297.101,775.7771,306.0162,770.7005,300.1902,771.5838,299.3069,765.7578,297.101,775.7771" style="stroke: #0000FF; stroke-width: 1.0416666666666667;"/><path d="M378.9146,271.8781 C433.3229,291.6625 495.5042,314.274 545.4854,332.449 " fill="none" style="stroke: #0000FF; stroke-width: 1.0416666666666667;"/><polygon fill="#0000FF" points="550.5917,334.3063,543.2043,327.1873,545.6967,332.5268,540.3572,335.0192,550.5917,334.3063" style="stroke: #0000FF; stroke-width: 1.0416666666666667;"/><path d="M574.4531,401.2667 C568.8948,406.3917 564.026,412.201 560.4167,418.75 C534.2698,466.1885 536.5125,492.0177 560.4167,540.625 C566.7063,553.4135 576.251,564.6781 586.9917,574.3688 " fill="none" style="stroke: #FF0000; stroke-width: 1.0416666666666667;"/><polygon fill="#FF0000" points="590.999,577.8677,586.6783,568.5627,587.076,574.4418,581.1968,574.8394,590.999,577.8677" style="stroke: #FF0000; stroke-width: 1.0416666666666667;"/><path d="M650.5771,401.1677 C656.5823,418.875 663.975,440.675 669.874,458.0688 " fill="none" style="stroke: #FF0000; stroke-width: 1.0416666666666667;"/><polygon fill="#FF0000" points="671.6542,463.3167,672.5898,453.1002,669.9817,458.3842,664.6978,455.7761,671.6542,463.3167" style="stroke: #FF0000; stroke-width: 1.0416666666666667;"/><path d="M676.2979,515.7323 C673.7854,531.8656 670.449,553.2938 667.4823,572.3427 " fill="none" style="stroke: #FF0000; stroke-width: 1.0416666666666667;"/><polygon fill="#FF0000" points="666.6563,577.6458,672.2171,569.0244,667.4584,572.4996,663.9831,567.741,666.6563,577.6458" style="stroke: #FF0000; stroke-width: 1.0416666666666667;"/><path d="M287.9906,957.4448 C284.6854,980.0583 279.824,1013.3198 276.3052,1037.3938 " fill="none" style="stroke: #008000; stroke-width: 1.0416666666666667;"/><polygon fill="#008000" points="275.5313,1042.6896,281.012,1034.0171,276.2857,1037.5362,272.7666,1032.8099,275.5313,1042.6896" style="stroke: #008000; stroke-width: 1.0416666666666667;"/><path d="M333.8688,957.3865 C349.2417,967.1385 366.4667,978.801 381.25,990.625 C399.6177,1005.3156 418.551,1023.6167 433.2948,1038.699 " fill="none" style="stroke: #008000; stroke-width: 1.0416666666666667;"/><polygon fill="#008000" points="436.95,1042.4604,433.4049,1032.8332,433.3204,1038.7251,427.4284,1038.6406,436.95,1042.4604" style="stroke: #008000; stroke-width: 1.0416666666666667;"/><path d="M277.9906,842.8344 C280.7625,860.5417 284.174,882.3417 286.8969,899.7354 " fill="none" style="stroke: #0000FF; stroke-width: 1.0416666666666667;"/><polygon fill="#0000FF" points="287.7188,904.9833,290.3835,895.0762,286.9123,899.8378,282.1506,896.3666,287.7188,904.9833" style="stroke: #0000FF; stroke-width: 1.0416666666666667;"/><path d="M251.8563,272.2427 C256.2844,384.9573 267.3979,667.8656 271.4281,770.4385 " fill="none" style="stroke: #0000FF; stroke-width: 1.0416666666666667;"/><polygon fill="#0000FF" points="271.6375,775.7688,275.434,766.2378,271.4336,770.5644,267.107,766.564,271.6375,775.7688" style="stroke: #0000FF; stroke-width: 1.0416666666666667;"/></g></svg>